<?xml version="1.0" encoding="UTF-8"?>
<svg width="201px" height="40px" viewBox="0 0 201 40" version="1.1" xmlns="http://www.w3.org/2000/svg" xmlns:xlink="http://www.w3.org/1999/xlink">
    <!-- Generator: Sketch 53.2 (72643) - https://sketchapp.com -->
    <title>Logo</title>
    <desc>Created with Sketch.</desc>
    <defs>
        <polygon id="path-1" points="0.1445 0.4615 6.222 0.4615 6.222 10.54 0.1445 10.54"></polygon>
        <polygon id="path-3" points="0 0.3925 43.3929 0.3925 43.3929 39.5 0 39.5"></polygon>
    </defs>
    <g id="Symbols" stroke="none" stroke-width="1" fill="none" fill-rule="evenodd">
        <g id="Header" transform="translate(-585.000000, 0.000000)">
            <g id="Logo" transform="translate(585.000000, 0.000000)">
                <path d="M55.3906,13.05445 C55.3906,14.84245 55.3131,14.74595 57.0436,14.95795 L57.0436,15.45795 L51.8706,15.45795 L51.8706,14.95795 C53.6016,14.74595 53.5241,14.84245 53.5241,13.05445 L53.5241,4.40045 C53.5241,2.61095 53.6016,2.70795 51.8706,2.49595 L51.8706,1.99695 L57.0436,1.99695 L57.0436,2.49595 C55.3131,2.70795 55.3906,2.61095 55.3906,4.40045 L55.3906,13.05445" id="Fill-1" fill="#FFFFFF"></path>
                <path d="M61.6594,13.05445 C61.6594,14.78495 61.5634,14.72645 63.1974,14.95795 L63.1974,15.45795 L58.3899,15.45795 L58.3899,14.95795 C60.0239,14.72645 59.9294,14.78495 59.9294,13.05445 L59.9294,7.72745 C59.9294,6.84445 59.3329,6.91995 58.3899,6.91995 L58.3899,6.41995 C59.4479,6.38145 60.7364,6.14945 61.6214,5.61095 L61.6594,5.65045 L61.6594,7.30445 C62.4864,6.34245 63.8709,5.61095 65.5444,5.61095 C67.8909,5.61095 68.3519,7.01545 68.3519,9.01645 L68.3519,13.05445 C68.3519,14.78495 68.2559,14.72645 69.8899,14.95795 L69.8899,15.45795 L65.0824,15.45795 L65.0824,14.95795 C66.7169,14.72645 66.6209,14.78495 66.6209,13.05445 L66.6209,9.51645 C66.6209,8.30345 66.5439,6.61195 64.5054,6.61195 C62.0444,6.61195 61.6594,8.72645 61.6594,10.70795 L61.6594,13.05445" id="Fill-3" fill="#FFFFFF"></path>
                <path d="M71.46655,13.0166 L71.96605,13.0166 C71.94705,14.3611 72.94805,15.0166 74.06305,15.0166 C75.17855,15.0166 75.83205,14.1691 75.83205,13.3621 C75.83205,12.1121 74.83205,11.6701 73.67755,10.8426 C72.12005,9.7091 71.48505,9.4016 71.48505,8.1311 C71.48505,6.5166 72.98555,5.6111 74.56255,5.6111 C75.17855,5.6111 75.94805,5.6506 76.83255,5.9386 L76.83255,7.8611 L76.33205,7.8611 C76.27405,7.2071 75.69805,6.2851 74.60155,6.2851 C73.79355,6.2851 73.12005,6.7666 73.12005,7.5156 C73.12005,8.4406 74.10155,8.9386 75.50505,9.9376 C77.31305,11.2081 77.54355,11.9201 77.54355,12.8046 C77.54355,14.8036 75.73505,15.6896 74.06305,15.6896 C73.00455,15.6896 72.17855,15.5166 71.46655,15.1711 L71.46655,13.0166" id="Fill-5" fill="#FFFFFF"></path>
                <path d="M85.0239,6.80345 L84.2349,7.18845 L82.1004,7.18845 L82.1004,12.24595 C82.1004,12.99695 82.1394,14.53495 83.4089,14.53495 C83.9279,14.53495 84.4274,14.49695 84.8894,14.30545 L85.0239,14.80345 L82.7924,15.68945 C81.4469,15.68945 80.3704,15.28495 80.3704,12.64945 L80.3704,7.18845 L78.8309,7.18845 L78.8309,6.30445 L80.3704,6.30445 L80.3704,4.28595 C80.7154,3.91895 81.1014,3.57295 81.5819,3.20795 L82.1004,3.20795 L82.1004,6.30445 L85.0239,6.30445 L85.0239,6.80345" id="Fill-7" fill="#FFFFFF"></path>
                <path d="M88.17845,2.11205 C88.79295,2.11205 89.31245,2.63155 89.31245,3.22755 C89.31245,3.82305 88.79295,4.36305 88.19795,4.36305 C87.58195,4.36305 87.06295,3.86205 87.06295,3.22755 C87.06295,2.61105 87.58195,2.11205 88.17845,2.11205 M89.25545,5.65055 L89.25545,13.05455 C89.25545,14.78505 89.15995,14.72655 90.79345,14.95805 L90.79345,15.45805 L85.98545,15.45805 L85.98545,14.95805 C87.62095,14.72655 87.52445,14.78505 87.52445,13.05455 L87.52445,7.72755 C87.52445,6.84455 86.92845,6.92005 85.98545,6.92005 L85.98545,6.42005 C87.04345,6.38155 88.33245,6.14955 89.21645,5.61105 L89.25545,5.65055" id="Fill-9" fill="#FFFFFF"></path>
                <path d="M98.10205,6.80345 L97.31305,7.18845 L95.17855,7.18845 L95.17855,12.24595 C95.17855,12.99695 95.21705,14.53495 96.48655,14.53495 C97.00555,14.53495 97.50555,14.49695 97.96755,14.30545 L98.10205,14.80345 L95.87105,15.68945 C94.52505,15.68945 93.44805,15.28495 93.44805,12.64945 L93.44805,7.18845 L91.90905,7.18845 L91.90905,6.30445 L93.44805,6.30445 L93.44805,4.28595 C93.79355,3.91895 94.17855,3.57295 94.65905,3.20795 L95.17855,3.20795 L95.17855,6.30445 L98.10205,6.30445 L98.10205,6.80345" id="Fill-11" fill="#FFFFFF"></path>
                <path d="M106.9856,15.68945 C106.6971,15.36195 106.5431,14.76545 106.5431,14.20895 L104.8516,15.18945 C104.0436,15.65145 103.6201,15.68945 103.0631,15.68945 C100.8516,15.68945 100.2546,14.09145 100.2546,11.93845 L100.2546,7.72745 C100.2546,6.84445 99.6586,6.91995 98.7166,6.91995 L98.7166,6.41995 C99.7551,6.38145 101.0436,6.14945 101.9471,5.61095 L101.9856,5.65045 L101.9856,11.76545 C101.9856,13.20795 102.2166,14.55445 103.9086,14.55445 C105.6976,14.55445 106.5431,13.59245 106.5431,10.74695 L106.5431,7.72745 C106.5431,6.84445 105.9471,6.91995 105.0056,6.91995 L105.0056,6.41995 C106.0631,6.38145 107.3511,6.14945 108.2351,5.61095 L108.2741,5.65045 L108.2741,12.97745 C108.2741,13.95795 108.3321,14.78495 109.6206,14.28495 L109.7361,14.82295 L106.9856,15.68945" id="Fill-13" fill="#FFFFFF"></path>
                <path d="M116.96605,6.80345 L116.17755,7.18845 L114.04255,7.18845 L114.04255,12.24595 C114.04255,12.99695 114.08205,14.53495 115.35155,14.53495 C115.87105,14.53495 116.37055,14.49695 116.83255,14.30545 L116.96605,14.80345 L114.73555,15.68945 C113.38955,15.68945 112.31305,15.28495 112.31305,12.64945 L112.31305,7.18845 L110.77355,7.18845 L110.77355,6.30445 L112.31305,6.30445 L112.31305,4.28595 C112.65855,3.91895 113.04255,3.57295 113.52355,3.20795 L114.04255,3.20795 L114.04255,6.30445 L116.96605,6.30445 L116.96605,6.80345" id="Fill-15" fill="#FFFFFF"></path>
                <path d="M123.5056,9.47655 C123.9286,9.47655 124.4671,9.20805 124.4671,8.36205 C124.4671,7.13105 123.5241,6.28505 122.4471,6.28505 C121.1596,6.28505 119.9096,7.05355 119.9096,9.47655 L123.5056,9.47655 Z M119.9096,10.15055 C119.9096,12.34255 120.9281,14.59255 123.6786,14.59255 C124.7361,14.59255 125.3711,14.13105 125.8331,13.90155 L126.1396,14.49705 L123.6206,15.68955 L123.0246,15.68955 C122.5436,15.68955 120.9281,15.93855 119.3701,14.22755 C118.7936,13.57405 118.0821,12.05455 118.0821,10.61205 C118.0821,8.36205 119.2936,5.61105 122.5631,5.61105 C124.7361,5.61105 126.1396,7.18855 126.1396,9.61105 L126.1396,10.15055 L119.9096,10.15055 L119.9096,10.15055 Z" id="Fill-17" fill="#FFFFFF"></path>
                <path d="M55.3901,32.51245 C55.3901,34.30145 55.3126,34.20495 57.0421,34.41695 L57.0421,34.91595 L51.8706,34.91595 L51.8706,34.41695 C53.6001,34.20495 53.5226,34.30145 53.5226,32.51245 L53.5226,23.85845 C53.5226,22.07095 53.6001,22.16795 51.8706,21.95495 L51.8706,21.45395 L56.9091,21.45395 C60.1016,21.45395 61.6776,22.72445 61.6776,25.03295 C61.6776,27.80245 59.1776,29.30145 56.2346,29.12895 L56.2346,28.74295 C58.6386,28.78295 59.7536,27.34045 59.7536,25.22445 C59.7536,23.06995 58.7156,22.07095 56.5616,22.07095 L55.3901,22.07095 L55.3901,32.51245" id="Fill-19" fill="#FFFFFF"></path>
                <path d="M68.33105,29.26345 C66.63955,29.89745 64.65755,30.35845 64.65755,32.32095 C64.65755,33.22445 65.25455,33.95495 66.13955,33.95495 C67.13905,33.95495 68.33105,33.30045 68.33105,30.76345 L68.33105,29.26345 Z M68.77405,35.14745 C68.48505,34.80145 68.33105,34.20495 68.33105,33.62795 L66.83255,34.62895 C66.38905,34.91595 65.85055,35.14745 65.25455,35.14745 C63.98505,35.14745 62.92805,34.03195 62.92805,32.62895 C62.92805,30.80145 64.00405,30.22545 66.25355,29.34045 L68.33105,28.53195 C68.33105,26.86045 67.88955,25.74395 66.69705,25.74395 C65.52305,25.74395 65.11955,26.80045 64.65755,27.49395 C64.60155,27.58945 64.52405,27.58945 64.40805,27.56995 L63.75405,27.41695 C63.64005,27.37795 63.58155,27.30145 63.60055,27.16695 L63.88955,26.14745 C64.00405,25.78195 64.21655,25.62795 64.44705,25.55045 C65.33205,25.20495 65.98555,25.06895 66.83255,25.06895 C69.08205,25.06895 70.06305,26.07095 70.06305,28.16695 L70.06305,32.43545 C70.06305,33.41595 70.12105,34.24295 71.40955,33.74395 L71.52355,34.28095 L68.77405,35.14745 L68.77405,35.14745 Z" id="Fill-21" fill="#FFFFFF"></path>
                <path d="M75.79245,20.8201 L75.79245,32.5126 C75.79245,34.2431 75.69695,34.1866 77.33045,34.4171 L77.33045,34.9161 L72.52295,34.9161 L72.52295,34.4171 C74.15845,34.1866 74.06295,34.2431 74.06295,32.5126 L74.06295,22.7061 C74.06295,22.1846 73.83195,21.8596 73.33295,21.8596 L72.52295,21.8596 L72.52295,21.3586 C73.67745,21.3211 74.90795,21.0906 75.75445,20.7821 L75.79245,20.8201" id="Fill-23" fill="#FFFFFF"></path>
                <path d="M84.0615,28.93555 C84.4835,28.93555 85.023,28.66705 85.023,27.82105 C85.023,26.58955 84.0805,25.74405 83.0045,25.74405 C81.716,25.74405 80.4655,26.51155 80.4655,28.93555 L84.0615,28.93555 Z M80.4655,29.60955 C80.4655,31.80055 81.4845,34.05055 84.234,34.05055 C85.2915,34.05055 85.926,33.58955 86.388,33.36055 L86.696,33.95505 L84.1755,35.14755 L83.581,35.14755 C83.1,35.14755 81.4845,35.39755 79.9255,33.68655 C79.3495,33.03205 78.6375,31.51355 78.6375,30.07205 C78.6375,27.82105 79.8485,25.06905 83.119,25.06905 C85.2915,25.06905 86.696,26.64755 86.696,29.07005 L86.696,29.60955 L80.4655,29.60955 L80.4655,29.60955 Z" id="Fill-25" fill="#FFFFFF"></path>
                <path d="M126.9834,28.93555 C127.4054,28.93555 127.9449,28.66705 127.9449,27.82105 C127.9449,26.58955 127.0014,25.74405 125.9259,25.74405 C124.6384,25.74405 123.3869,26.51155 123.3869,28.93555 L126.9834,28.93555 Z M123.3869,29.60955 C123.3869,31.80055 124.4069,34.05055 127.1564,34.05055 C128.2129,34.05055 128.8479,33.58955 129.3099,33.36055 L129.6179,33.95505 L127.0974,35.14755 L126.5024,35.14755 C126.0214,35.14755 124.4069,35.39755 122.8474,33.68655 C122.2709,33.03205 121.5599,31.51355 121.5599,30.07205 C121.5599,27.82105 122.7709,25.06905 126.0409,25.06905 C128.2129,25.06905 129.6179,26.64755 129.6179,29.07005 L129.6179,29.60955 L123.3869,29.60955 L123.3869,29.60955 Z" id="Fill-27" fill="#FFFFFF"></path>
                <path d="M88.42745,32.4756 L88.92745,32.4756 C88.90795,33.8211 89.90795,34.4746 91.02295,34.4746 C92.13895,34.4746 92.79245,33.6281 92.79245,32.8201 C92.79245,31.5701 91.79245,31.1281 90.63795,30.3026 C89.08095,29.1671 88.44595,28.8606 88.44595,27.5896 C88.44595,25.9756 89.94695,25.0691 91.52245,25.0691 C92.13895,25.0691 92.90895,25.1096 93.79345,25.3986 L93.79345,27.3211 L93.29195,27.3211 C93.23495,26.6671 92.65895,25.7441 91.56245,25.7441 C90.75445,25.7441 90.08045,26.2246 90.08045,26.9736 C90.08045,27.8986 91.06295,28.3986 92.46495,29.3966 C94.27395,30.6671 94.50445,31.3781 94.50445,32.2626 C94.50445,34.2626 92.69645,35.1476 91.02295,35.1476 C89.96545,35.1476 89.13945,34.9746 88.42745,34.6291 L88.42745,32.4756" id="Fill-29" fill="#FFFFFF"></path>
                <path d="M101.9851,26.26245 L101.1966,26.64745 L99.0611,26.64745 L99.0611,31.70495 C99.0611,32.45495 99.1006,33.99495 100.3701,33.99495 C100.8886,33.99495 101.3876,33.95495 101.8506,33.76345 L101.9851,34.26245 L99.7536,35.14745 C98.4081,35.14745 97.3316,34.74295 97.3316,32.10945 L97.3316,26.64745 L95.7921,26.64745 L95.7921,25.76245 L97.3316,25.76245 L97.3316,23.74395 C97.6766,23.37895 98.0626,23.03195 98.5426,22.66595 L99.0611,22.66595 L99.0611,25.76245 L101.9851,25.76245 L101.9851,26.26245" id="Fill-31" fill="#FFFFFF"></path>
                <path d="M105.1384,21.57105 C105.7539,21.57105 106.2724,22.08955 106.2724,22.68655 C106.2724,23.28205 105.7539,23.82005 105.1589,23.82005 C104.5429,23.82005 104.0229,23.32105 104.0229,22.68655 C104.0229,22.07105 104.5429,21.57105 105.1384,21.57105 M106.2154,25.10955 L106.2154,32.51255 C106.2154,34.24305 106.1209,34.18655 107.7544,34.41705 L107.7544,34.91605 L102.9464,34.91605 L102.9464,34.41705 C104.5809,34.18655 104.4849,34.24305 104.4849,32.51255 L104.4849,27.18655 C104.4849,26.30255 103.8894,26.37905 102.9464,26.37905 L102.9464,25.87905 C104.0034,25.83955 105.2924,25.60955 106.1769,25.06905 L106.2154,25.10955" id="Fill-33" fill="#FFFFFF"></path>
                <path d="M112.17745,32.51245 C112.17745,34.24295 112.08095,34.18645 113.71545,34.41695 L113.71545,34.91595 L108.90745,34.91595 L108.90745,34.41695 C110.54145,34.18645 110.44595,34.24295 110.44595,32.51245 L110.44595,27.18645 C110.44595,26.30245 109.85045,26.37895 108.90745,26.37895 L108.90745,25.87895 C109.96445,25.83945 111.25345,25.60945 112.13745,25.06895 L112.17745,25.10945 L112.17745,26.76245 C113.00345,25.80145 114.38795,25.06895 116.06095,25.06895 C118.40645,25.06895 118.86895,26.47445 118.86895,28.47445 L118.86895,32.51245 C118.86895,34.24295 118.77195,34.18645 120.40645,34.41695 L120.40645,34.91595 L115.59895,34.91595 L115.59895,34.41695 C117.23395,34.18645 117.13945,34.24295 117.13945,32.51245 L117.13945,28.97445 C117.13945,27.76245 117.06245,26.07095 115.02245,26.07095 C112.56245,26.07095 112.17745,28.18445 112.17745,30.16695 L112.17745,32.51245" id="Fill-35" fill="#FFFFFF"></path>
                <path d="M145.48995,24.3201 C145.33595,22.9736 144.60495,21.8986 143.06745,21.8986 C141.95095,21.8986 140.95195,22.4746 140.95195,23.8976 C140.95195,25.2441 142.29945,26.0496 144.22245,27.4941 C146.26045,29.0126 146.91395,29.9941 146.91395,31.5896 C146.91395,33.8781 144.56845,35.1476 142.25945,35.1476 C141.02995,35.1476 139.97295,34.9161 138.97095,34.5321 C138.89445,34.4941 138.83645,34.4171 138.83645,34.2626 L138.83645,31.4931 L139.33795,31.4931 C139.54795,33.6281 140.95195,34.4746 142.43295,34.4746 C143.79745,34.4746 144.91395,33.4376 144.91395,32.0311 C144.91395,30.7831 144.24145,29.7636 141.35645,27.8596 C140.31695,27.1671 139.02995,26.4171 139.02995,24.3201 C139.02995,22.5896 140.95195,21.2246 143.16295,21.2246 C143.99095,21.2246 145.08645,21.3211 145.85695,21.5896 C145.97095,21.6291 145.99145,21.7051 145.99145,21.8006 L145.99145,24.3201 L145.48995,24.3201" id="Fill-37" fill="#FFFFFF"></path>
                <path d="M154.41405,26.26245 L153.62555,26.64745 L151.49005,26.64745 L151.49005,31.70495 C151.49005,32.45495 151.52905,33.99495 152.79855,33.99495 C153.31805,33.99495 153.81705,33.95495 154.28005,33.76345 L154.41405,34.26245 L152.18355,35.14745 C150.83655,35.14745 149.76055,34.74295 149.76055,32.10945 L149.76055,26.64745 L148.22155,26.64745 L148.22155,25.76245 L149.76055,25.76245 L149.76055,23.74395 C150.10605,23.37895 150.49105,23.03195 150.97155,22.66595 L151.49005,22.66595 L151.49005,25.76245 L154.41405,25.76245 L154.41405,26.26245" id="Fill-39" fill="#FFFFFF"></path>
                <path d="M163.2966,35.14745 C163.0106,34.81995 162.8551,34.22445 162.8551,33.66695 L161.1641,34.64745 C160.3551,35.10945 159.9326,35.14745 159.3741,35.14745 C157.1631,35.14745 156.5661,33.55145 156.5661,31.39645 L156.5661,27.18645 C156.5661,26.30245 155.9716,26.37895 155.0291,26.37895 L155.0291,25.87895 C156.0671,25.83945 157.3551,25.60945 158.2576,25.06895 L158.2976,25.10945 L158.2976,31.22445 C158.2976,32.66595 158.5291,34.01345 160.2216,34.01345 C162.0086,34.01345 162.8551,33.05145 162.8551,30.20495 L162.8551,27.18645 C162.8551,26.30245 162.2586,26.37895 161.3171,26.37895 L161.3171,25.87895 C162.3756,25.83945 163.6631,25.60945 164.5471,25.06895 L164.5856,25.10945 L164.5856,32.43545 C164.5856,33.41595 164.6436,34.24295 165.9316,33.74395 L166.0481,34.28095 L163.2966,35.14745" id="Fill-41" fill="#FFFFFF"></path>
                <path d="M174.5483,26.8965 C174.0493,26.071 173.2593,25.744 172.0678,25.744 C169.9533,25.744 169.1048,27.954 169.1048,29.454 C169.1048,31.455 169.9913,34.0505 172.3353,34.0505 C173.3548,34.0505 174.5483,33.205 174.5483,32.2625 L174.5483,26.8965 Z M174.9708,35.1475 C174.6843,34.8015 174.5668,34.379 174.5483,33.8005 L173.2593,34.571 C172.5108,34.994 172.2608,35.1475 171.7983,35.1475 C168.6253,35.1475 167.2788,32.417 167.2788,30.2255 C167.2788,26.82 169.7798,25.069 172.3753,25.069 C172.9923,25.069 173.8548,25.1095 174.5483,25.3985 L174.5483,22.706 C174.5483,22.1845 174.3168,21.8595 173.7983,21.8595 L173.0108,21.8595 L173.0108,21.3585 C174.1638,21.321 175.3953,21.0905 176.2403,20.782 L176.2798,20.82 L176.2798,32.4355 C176.2798,33.416 176.3363,34.243 177.6238,33.744 L177.7413,34.281 L174.9708,35.1475 L174.9708,35.1475 Z" id="Fill-43" fill="#FFFFFF"></path>
                <path d="M180.9326,21.57105 C181.5481,21.57105 182.0661,22.08955 182.0661,22.68655 C182.0661,23.28205 181.5481,23.82005 180.9531,23.82005 C180.3366,23.82005 179.8161,23.32105 179.8161,22.68655 C179.8161,22.07105 180.3366,21.57105 180.9326,21.57105 M182.0091,25.10955 L182.0091,32.51255 C182.0091,34.24305 181.9141,34.18655 183.5471,34.41705 L183.5471,34.91605 L178.7401,34.91605 L178.7401,34.41705 C180.3751,34.18655 180.2786,34.24305 180.2786,32.51255 L180.2786,27.18655 C180.2786,26.30255 179.6826,26.37905 178.7401,26.37905 L178.7401,25.87905 C179.7971,25.83955 181.0856,25.60955 181.9706,25.06905 L182.0091,25.10955" id="Fill-45" fill="#FFFFFF"></path>
                <path d="M190.2788,28.93555 C190.7023,28.93555 191.2403,28.66705 191.2403,27.82105 C191.2403,26.58955 190.2983,25.74405 189.2208,25.74405 C187.9338,25.74405 186.6818,26.51155 186.6818,28.93555 L190.2788,28.93555 Z M186.6818,29.60955 C186.6818,31.80055 187.7023,34.05055 190.4513,34.05055 C191.5083,34.05055 192.1433,33.58955 192.6058,33.36055 L192.9143,33.95505 L190.3933,35.14755 L189.7973,35.14755 C189.3168,35.14755 187.7023,35.39755 186.1433,33.68655 C185.5668,33.03205 184.8548,31.51355 184.8548,30.07205 C184.8548,27.82105 186.0658,25.06905 189.3363,25.06905 C191.5083,25.06905 192.9143,26.64755 192.9143,29.07005 L192.9143,29.60955 L186.6818,29.60955 L186.6818,29.60955 Z" id="Fill-47" fill="#FFFFFF"></path>
                <g id="Group-51" transform="translate(194.500000, 24.607600)">
                    <mask id="mask-2" fill="white">
                        <use xlink:href="#path-1"></use>
                    </mask>
                    <g id="Clip-50"></g>
                    <path d="M0.1445,7.868 L0.6445,7.868 C0.6265,9.2135 1.6255,9.867 2.74,9.867 C3.856,9.867 4.5105,9.0205 4.5105,8.2125 C4.5105,6.9625 3.5105,6.5205 2.356,5.695 C0.7985,4.5595 0.164,4.253 0.164,2.982 C0.164,1.368 1.664,0.4615 3.24,0.4615 C3.856,0.4615 4.6255,0.502 5.5105,0.791 L5.5105,2.7135 L5.0085,2.7135 C4.953,2.0595 4.3765,1.1365 3.279,1.1365 C2.4725,1.1365 1.7975,1.617 1.7975,2.366 C1.7975,3.291 2.78,3.791 4.1835,4.789 C5.991,6.0595 6.2225,6.7705 6.2225,7.655 C6.2225,9.655 4.413,10.54 2.74,10.54 C1.6835,10.54 0.857,10.367 0.1445,10.0215 L0.1445,7.868" id="Fill-49" fill="#FFFFFF" mask="url(#mask-2)"></path>
                </g>
                <g id="Group-54" transform="translate(0.000000, 0.107600)">
                    <mask id="mask-4" fill="white">
                        <use xlink:href="#path-3"></use>
                    </mask>
                    <g id="Clip-53"></g>
                    <path d="M26.8059,32.878 C26.4724,32.961 25.5814,32.9375 25.5714,32.9245 C25.4904,32.822 24.9534,31.0515 24.9534,31.0515 C26.2719,31.4035 26.8374,32.87 26.8059,32.878 M21.4604,32.9685 C21.4469,32.949 21.4339,32.929 21.4204,32.909 C18.6869,28.838 13.7269,28.7485 13.5944,28.223 C14.2979,27.7405 18.2524,24.137 18.2524,24.137 C18.2524,24.137 21.1964,24.62 21.1529,24.884 C21.1094,25.1475 17.1539,27.828 17.1539,27.828 C17.1539,27.828 16.9249,28.297 18.4279,28.443 C20.2309,28.6195 23.5254,29.981 23.9209,32.882 C23.9209,32.882 23.5254,33.1455 21.4604,32.9685 M17.6819,32.882 C17.6819,32.882 17.5359,31.6455 17.4619,31.4755 C17.3869,31.3045 18.7359,31.695 19.1309,32.8365 C18.7359,33.013 17.6819,32.882 17.6819,32.882 M9.1909,22.9 C9.1909,22.9 12.5699,16.825 16.9614,13.6175 C16.9614,13.6175 25.2699,7.935 33.9284,12.322 C43.5374,17.19 37.3529,27.6905 30.1194,25.138 C24.2304,23.0595 23.3069,22.021 17.1244,21.6595 C17.1244,21.6595 13.4629,21.544 9.1909,22.9 M20.7329,4.9685 C20.6909,4.137 21.9389,3.2495 21.9389,3.2495 L21.9944,3.2495 C23.7154,5.15 24.5879,2.7495 24.3389,2.4315 C24.8664,2.4025 25.8939,2.4585 25.9764,2.9165 C25.6709,5.7605 20.7744,5.8015 20.7329,4.9685 M41.9804,26.0445 C41.9804,26.0445 38.6729,29.3835 34.5314,30.957 C30.3949,32.5285 28.7209,32.584 28.7169,32.584 C28.6779,32.5855 27.6079,31.2185 27.1174,30.779 C26.4894,30.2165 25.7034,29.8545 24.9369,29.5075 C23.3674,28.799 21.6964,28.336 20.1544,27.565 C21.2314,27.3175 22.3254,27.073 23.3529,26.66 C23.7419,26.503 24.3599,26.199 24.7844,25.906 C24.7954,25.8985 25.7599,26.2975 26.3069,26.505 C26.8574,26.714 27.5094,26.9755 28.0664,27.2075 C31.8909,28.8 36.3844,28.363 39.4554,25.4975 C40.3654,24.6485 41.2104,23.5 41.7344,22.3685 C42.6814,20.5045 42.7359,17.513 42.3439,15.5155 C41.8909,13.2075 40.6994,11.0905 39.2589,9.2565 C36.7274,6.0335 33.2914,3.7505 29.6829,1.892 C28.8929,1.485 28.0744,1.1615 27.2744,0.786 C27.2744,0.786 25.5909,-0.0035 23.2524,0.654 C20.9014,1.315 19.2699,3.5205 18.6654,4.229 C18.0609,4.939 15.4194,5.991 15.4194,5.991 C15.4194,5.991 15.4649,6.7315 15.5169,6.754 C15.5674,6.776 18.0334,6.1205 19.4984,6.504 C20.9639,6.8865 20.6499,6.839 21.1254,6.938 C21.6019,7.038 23.5479,6.971 24.1579,6.6515 C24.1579,6.6515 26.0344,6.0805 28.0024,3.995 C28.0024,3.995 35.4384,5.87 38.2324,11.917 C38.4289,12.455 36.5274,10.8285 36.5274,10.8285 C36.2219,10.6255 33.4454,8.4675 29.9564,8.034 C26.4864,7.6055 24.2644,7.8115 21.5359,8.6775 C21.5359,8.6775 17.6799,9.8315 15.6729,11.2615 C15.6729,11.2615 11.0304,11.287 11.4889,5.595 C11.4889,5.595 12.0274,2.8535 12.3284,2.7885 C12.6299,2.723 11.8569,1.699 11.8569,1.699 C11.8569,1.699 7.9739,5.988 4.6299,7.195 C4.3014,7.3265 5.1669,8.7035 5.1669,8.7035 C5.1669,8.7035 8.7219,6.6175 9.0629,6.159 C9.6534,5.6215 9.4959,6.238 9.5479,6.6835 C9.5479,6.6835 9.3774,9.7265 13.8764,12.494 C13.8764,12.494 13.5089,12.98 13.3379,12.94 C13.1679,12.9005 9.1804,11.549 7.7644,7.8895 C7.7644,7.8895 4.9309,11.0905 1.4809,12.323 C1.4809,12.323 1.7179,14.252 1.8354,14.252 C2.2424,14.291 5.4169,11.969 6.9379,10.7505 C6.9379,10.7505 8.0394,12.665 12.3159,13.8975 C12.3159,13.8975 12.3419,14.252 11.9874,14.3685 C11.6339,14.4875 8.3409,14.252 6.0719,12.4285 C4.3674,14.5265 -0.0001,18.055 -0.0001,18.055 C-0.0001,18.055 0.5894,19.721 0.6689,19.7865 C0.7474,19.852 5.0629,15.9825 5.8499,14.7495 C8.2334,16.184 10.5189,15.956 10.5314,15.918 L10.5189,15.97 C10.5189,15.97 11.1089,15.498 9.1809,17.806 C6.6099,18.278 5.1809,17.085 5.1809,17.085 C5.1809,17.085 0.8449,22.4265 0.1764,22.6895 C0.3859,23.175 1.2084,24.0075 1.2084,24.0075 C1.2084,24.0075 4.9869,19.8675 5.4199,18.648 C6.4164,19.4605 8.1309,19.34 8.1309,19.34 C8.1309,19.34 7.2784,21.2155 6.7674,21.701 C6.2554,22.1865 4.1399,21.901 4.2714,21.965 C4.4019,22.0315 1.7894,25.855 0.5699,26.9435 C0.5699,26.9435 1.5124,27.9645 1.5909,27.9645 C1.6694,27.9645 3.6329,26.433 4.7609,23.6285 C4.9309,23.4195 5.9674,23.38 5.9674,23.38 C5.9674,23.38 3.4224,27.682 2.5444,32.115 C2.6489,32.4565 4.0919,33.4 4.0919,33.4 L4.1304,33.375 C4.1304,33.375 4.7609,31.2755 5.7974,29.282 C6.8329,27.289 7.8294,24.9935 13.9414,24.2455 C13.9414,24.2455 14.6504,23.8525 11.1744,28.653 C10.9394,29.116 11.3079,29.195 11.6729,29.217 C11.6729,29.217 16.4569,29.2615 16.2894,33.086 C10.9124,33.375 7.9214,37.074 7.9214,37.074 C7.9214,37.074 9.1544,39.5125 9.2589,39.5 C9.3639,39.486 10.2954,37.257 13.0109,36.064 C13.0109,36.064 14.7814,34.995 17.6404,34.66 C20.5089,34.3235 27.2779,35.1875 29.2334,34.714 C29.2534,34.7095 29.2739,34.711 29.2934,34.708 C32.3139,34.2435 35.2374,32.98 35.2374,32.98 C37.9379,32.0025 43.3929,27.811 43.3929,27.811 L41.9804,26.0445" id="Fill-52" fill="#FFFFFF" mask="url(#mask-4)"></path>
                </g>
                <path d="M139.2014,6.81615 L138.4129,7.20115 L136.5274,7.20115 L136.5274,13.06665 C136.5274,13.70065 136.5274,13.97015 136.6049,14.43165 C136.6814,14.83565 137.3739,14.87415 138.4509,14.97015 L138.4509,15.47015 L133.2584,15.47015 L133.2584,14.97015 C134.8934,14.73915 134.7974,14.79715 134.7974,13.06665 L134.7974,7.20115 L133.4699,7.20115 L133.4699,6.31615 L134.7974,6.31615 L134.7974,4.75815 C134.7974,3.52715 135.4894,2.83515 136.1819,2.33565 C136.5659,2.04665 137.5469,1.41215 138.0854,1.33515 C138.3354,1.29665 138.6624,1.25815 138.8934,1.43165 L139.7974,2.20115 C139.9124,2.31665 139.8159,2.45115 139.7584,2.50815 L139.4514,2.96965 C139.3549,3.06615 139.2014,3.02715 139.0854,2.98915 L138.3934,2.70065 C137.9514,2.52765 137.5664,2.35465 137.2584,2.35465 C136.5469,2.35465 136.5274,2.98915 136.5274,3.81665 L136.5274,6.31615 L139.2014,6.31615 L139.2014,6.81615" id="Fill-55" fill="#FFFFFF"></path>
                <path d="M148.104,10.68215 C148.104,8.54715 147.2005,6.29715 144.951,6.29715 C143.2965,6.29715 141.989,7.70015 141.989,10.66215 C141.989,13.12365 143.0855,15.02765 145.182,15.02765 C146.7775,15.02765 148.104,13.66265 148.104,10.68215 M140.085,10.73915 C140.085,8.06615 142.0275,5.62415 145.22,5.62415 C147.624,5.62415 150.0085,7.25815 150.0085,10.58565 C150.0085,13.37365 147.951,15.70115 144.874,15.70115 C142.4125,15.70115 140.085,14.02765 140.085,10.73915" id="Fill-57" fill="#FFFFFF"></path>
                <path d="M156.22045,7.45095 C156.02795,7.35445 155.79745,7.37395 155.50845,7.37395 C154.72045,7.37395 154.58545,8.68145 154.58545,10.06595 L154.58545,13.06645 C154.58545,13.70045 154.58545,13.96995 154.66195,14.43145 C154.73895,14.83545 155.43145,14.87395 156.47045,14.96995 L156.47045,15.46995 L151.31595,15.46995 L151.31595,14.96995 C152.95095,14.73895 152.85495,14.79695 152.85495,13.06645 L152.85495,7.73895 C152.85495,6.85495 152.25845,6.93095 151.33545,6.93095 L151.33545,6.43145 C152.37395,6.39295 153.66195,6.16195 154.54645,5.62395 L154.58545,5.66195 L154.58545,7.39345 L155.58545,6.35445 C156.04745,5.87395 156.31595,5.62395 156.64345,5.62395 C156.81595,5.62395 157.04645,5.64295 157.35395,6.20045 L157.91195,7.18145 C157.97045,7.29745 157.87395,7.37395 157.75845,7.45095 L157.20095,7.81595 C157.08545,7.89295 157.00845,7.85445 156.91195,7.79695 L156.22045,7.45095" id="Fill-59" fill="#FFFFFF"></path>
            </g>
        </g>
    </g>
</svg>