<?xml version="1.0" encoding="UTF-8"?>
<svg width="354px" height="46px" viewBox="0 0 354 46" version="1.1" xmlns="http://www.w3.org/2000/svg" xmlns:xlink="http://www.w3.org/1999/xlink">
    <!-- Generator: Sketch 54.1 (76490) - https://sketchapp.com -->
    <title>Group 67</title>
    <desc>Created with Sketch.</desc>
    <defs>
        <polygon id="path-1" points="0 0.961236332 48.8649 0.961236332 48.8649 44.9997613 0 44.9997613"></polygon>
    </defs>
    <g id="Symbols" stroke="none" stroke-width="1" fill="none" fill-rule="evenodd">
        <g id="Header" transform="translate(-531.000000, -1.000000)">
            <g id="Group-67" transform="translate(531.000000, 1.000000)">
                <g id="Group-66">
                    <path d="M62.3759,35.4572 C62.3759,37.4702 62.2879,37.3602 64.2369,37.6002 L64.2369,38.1632 L58.4119,38.1632 L58.4119,37.6002 C60.3609,37.3602 60.2739,37.4702 60.2739,35.4572 L60.2739,25.7112 C60.2739,23.6952 60.3609,23.8052 58.4119,23.5662 L58.4119,23.0052 L64.2369,23.0052 L64.2369,23.5662 C62.2879,23.8052 62.3759,23.6952 62.3759,25.7112 L62.3759,35.4572" id="Fill-1" fill="#FEFEFE"></path>
                    <path d="M69.435,35.4572 C69.435,37.4042 69.327,37.3402 71.167,37.6002 L71.167,38.1632 L65.753,38.1632 L65.753,37.6002 C67.593,37.3402 67.487,37.4042 67.487,35.4572 L67.487,29.4582 C67.487,28.4642 66.815,28.5482 65.753,28.5482 L65.753,27.9842 C66.945,27.9412 68.396,27.6812 69.392,27.0752 L69.435,27.1192 L69.435,28.9812 C70.366,27.8972 71.925,27.0752 73.81,27.0752 C76.452,27.0752 76.972,28.6552 76.972,30.9092 L76.972,35.4572 C76.972,37.4042 76.863,37.3402 78.703,37.6002 L78.703,38.1632 L73.29,38.1632 L73.29,37.6002 C75.13,37.3402 75.022,37.4042 75.022,35.4572 L75.022,31.4732 C75.022,30.1062 74.936,28.2022 72.64,28.2022 C69.869,28.2022 69.435,30.5832 69.435,32.8132 L69.435,35.4572" id="Fill-3" fill="#FEFEFE"></path>
                    <path d="M80.4789,35.4143 L81.0409,35.4143 C81.0199,36.9283 82.1469,37.6663 83.4029,37.6663 C84.6589,37.6663 85.3949,36.7123 85.3949,35.8033 C85.3949,34.3953 84.2689,33.8963 82.9689,32.9663 C81.2149,31.6883 80.4999,31.3433 80.4999,29.9123 C80.4999,28.0943 82.1889,27.0753 83.9649,27.0753 C84.6589,27.0753 85.5249,27.1193 86.5209,27.4423 L86.5209,29.6083 L85.9579,29.6083 C85.8929,28.8723 85.2439,27.8343 84.0089,27.8343 C83.0989,27.8343 82.3409,28.3763 82.3409,29.2193 C82.3409,30.2613 83.4459,30.8213 85.0269,31.9453 C87.0629,33.3773 87.3219,34.1793 87.3219,35.1753 C87.3219,37.4263 85.2859,38.4243 83.4029,38.4243 C82.2109,38.4243 81.2809,38.2283 80.4789,37.8403 L80.4789,35.4143" id="Fill-5" fill="#FEFEFE"></path>
                    <path d="M95.746,28.4182 L94.857,28.8512 L92.454,28.8512 L92.454,34.5462 C92.454,35.3922 92.498,37.1242 93.927,37.1242 C94.512,37.1242 95.074,37.0812 95.595,36.8662 L95.746,37.4262 L93.233,38.4242 C91.718,38.4242 90.506,37.9692 90.506,35.0002 L90.506,28.8512 L88.772,28.8512 L88.772,27.8562 L90.506,27.8562 L90.506,25.5822 C90.894,25.1692 91.329,24.7792 91.87,24.3682 L92.454,24.3682 L92.454,27.8562 L95.746,27.8562 L95.746,28.4182" id="Fill-7" fill="#FEFEFE"></path>
                    <path d="M99.298,23.134 C99.99,23.134 100.575,23.72 100.575,24.39 C100.575,25.061 99.99,25.669 99.32,25.669 C98.627,25.669 98.042,25.105 98.042,24.39 C98.042,23.696 98.627,23.134 99.298,23.134 M100.511,27.119 L100.511,35.457 C100.511,37.405 100.404,37.34 102.243,37.6 L102.243,38.163 L96.829,38.163 L96.829,37.6 C98.67,37.34 98.562,37.405 98.562,35.457 L98.562,29.458 C98.562,28.464 97.891,28.548 96.829,28.548 L96.829,27.985 C98.02,27.942 99.472,27.681 100.467,27.075 L100.511,27.119" id="Fill-9" fill="#FEFEFE"></path>
                    <path d="M110.4731,28.4182 L109.5851,28.8512 L107.1811,28.8512 L107.1811,34.5462 C107.1811,35.3922 107.2241,37.1242 108.6541,37.1242 C109.2381,37.1242 109.8011,37.0812 110.3221,36.8662 L110.4731,37.4262 L107.9611,38.4242 C106.4451,38.4242 105.2321,37.9692 105.2321,35.0002 L105.2321,28.8512 L103.4991,28.8512 L103.4991,27.8562 L105.2321,27.8562 L105.2321,25.5822 C105.6211,25.1692 106.0551,24.7792 106.5961,24.3682 L107.1811,24.3682 L107.1811,27.8562 L110.4731,27.8562 L110.4731,28.4182" id="Fill-11" fill="#FEFEFE"></path>
                    <path d="M120.477,38.424 C120.152,38.055 119.979,37.383 119.979,36.757 L118.074,37.861 C117.164,38.381 116.687,38.424 116.06,38.424 C113.569,38.424 112.897,36.625 112.897,34.2 L112.897,29.458 C112.897,28.464 112.226,28.548 111.165,28.548 L111.165,27.985 C112.335,27.942 113.786,27.681 114.803,27.075 L114.846,27.119 L114.846,34.005 C114.846,35.629 115.107,37.146 117.012,37.146 C119.027,37.146 119.979,36.063 119.979,32.858 L119.979,29.458 C119.979,28.464 119.307,28.548 118.247,28.548 L118.247,27.985 C119.438,27.942 120.889,27.681 121.884,27.075 L121.928,27.119 L121.928,35.37 C121.928,36.474 121.993,37.404 123.444,36.842 L123.574,37.447 L120.477,38.424" id="Fill-13" fill="#FEFEFE"></path>
                    <path d="M131.716,28.4182 L130.828,28.8512 L128.424,28.8512 L128.424,34.5462 C128.424,35.3922 128.468,37.1242 129.898,37.1242 C130.483,37.1242 131.045,37.0812 131.566,36.8662 L131.716,37.4262 L129.204,38.4242 C127.689,38.4242 126.476,37.9692 126.476,35.0002 L126.476,28.8512 L124.743,28.8512 L124.743,27.8562 L126.476,27.8562 L126.476,25.5822 C126.865,25.1692 127.298,24.7792 127.839,24.3682 L128.424,24.3682 L128.424,27.8562 L131.716,27.8562 L131.716,28.4182" id="Fill-15" fill="#FEFEFE"></path>
                    <path d="M139.08,31.427 C139.556,31.427 140.163,31.125 140.163,30.173 C140.163,28.786 139.101,27.834 137.888,27.834 C136.438,27.834 135.031,28.698 135.031,31.427 L139.08,31.427 Z M135.031,32.186 C135.031,34.655 136.178,37.189 139.275,37.189 C140.466,37.189 141.181,36.669 141.701,36.41 L142.046,37.081 L139.21,38.424 L138.538,38.424 C137.997,38.424 136.178,38.704 134.423,36.778 C133.774,36.042 132.973,34.331 132.973,32.706 C132.973,30.173 134.337,27.075 138.019,27.075 C140.466,27.075 142.046,28.851 142.046,31.579 L142.046,32.186 L135.031,32.186 L135.031,32.186 Z" id="Fill-17" fill="#FEFEFE"></path>
                    <path d="M189.58,35.4563 C189.58,37.4713 189.492,37.3613 191.44,37.6013 L191.44,38.1633 L185.616,38.1633 L185.616,37.6013 C187.564,37.3613 187.477,37.4713 187.477,35.4563 L187.477,25.7113 C187.477,23.6973 187.564,23.8073 185.616,23.5663 L185.616,23.0033 L191.29,23.0033 C194.885,23.0033 196.66,24.4343 196.66,27.0343 C196.66,30.1513 193.845,31.8403 190.531,31.6453 L190.531,31.2113 C193.238,31.2563 194.494,29.6323 194.494,27.2493 C194.494,24.8223 193.325,23.6973 190.898,23.6973 L189.58,23.6973 L189.58,35.4563" id="Fill-19" fill="#FEFEFE"></path>
                    <path d="M204.153,31.7981 C202.248,32.5111 200.016,33.0291 200.016,35.2411 C200.016,36.2581 200.688,37.0811 201.685,37.0811 C202.81,37.0811 204.153,36.3441 204.153,33.4861 L204.153,31.7981 Z M204.652,38.4231 C204.326,38.0341 204.153,37.3611 204.153,36.7121 L202.465,37.8391 C201.966,38.1631 201.359,38.4231 200.688,38.4231 C199.259,38.4231 198.068,37.1671 198.068,35.5871 C198.068,33.5291 199.28,32.8811 201.813,31.8841 L204.153,30.9741 C204.153,29.0911 203.656,27.8341 202.313,27.8341 C200.991,27.8341 200.536,29.0241 200.016,29.8051 C199.953,29.9131 199.866,29.9131 199.735,29.8911 L198.999,29.7181 C198.87,29.6741 198.804,29.5881 198.826,29.4361 L199.151,28.2881 C199.28,27.8771 199.519,27.7031 199.779,27.6161 C200.776,27.2271 201.511,27.0731 202.465,27.0731 C204.998,27.0731 206.103,28.2031 206.103,30.5621 L206.103,35.3691 C206.103,36.4741 206.168,37.4041 207.619,36.8431 L207.748,37.4471 L204.652,38.4231 L204.652,38.4231 Z" id="Fill-21" fill="#FEFEFE"></path>
                    <path d="M212.5551,22.2893 L212.5551,35.4563 C212.5551,37.4043 212.4481,37.3413 214.2871,37.6013 L214.2871,38.1633 L208.8731,38.1633 L208.8731,37.6013 C210.7151,37.3413 210.6071,37.4043 210.6071,35.4563 L210.6071,24.4133 C210.6071,23.8263 210.3471,23.4603 209.7851,23.4603 L208.8731,23.4603 L208.8731,22.8943 C210.1731,22.8533 211.5591,22.5943 212.5121,22.2463 L212.5551,22.2893" id="Fill-23" fill="#FEFEFE"></path>
                    <path d="M221.8661,31.4279 C222.3421,31.4279 222.9501,31.1259 222.9501,30.1729 C222.9501,28.7859 221.8881,27.8339 220.6771,27.8339 C219.2261,27.8339 217.8171,28.6989 217.8171,31.4279 L221.8661,31.4279 Z M217.8171,32.1869 C217.8171,34.6549 218.9651,37.1879 222.0611,37.1879 C223.2521,37.1879 223.9671,36.6689 224.4871,36.4109 L224.8341,37.0809 L221.9951,38.4229 L221.3261,38.4229 C220.7841,38.4229 218.9651,38.7049 217.2091,36.7779 C216.5611,36.0409 215.7591,34.3309 215.7591,32.7079 C215.7591,30.1729 217.1231,27.0739 220.8061,27.0739 C223.2521,27.0739 224.8341,28.8509 224.8341,31.5799 L224.8341,32.1869 L217.8171,32.1869 L217.8171,32.1869 Z" id="Fill-25" fill="#FEFEFE"></path>
                    <path d="M270.2021,31.4279 C270.6771,31.4279 271.2841,31.1259 271.2841,30.1729 C271.2841,28.7859 270.2221,27.8339 269.0111,27.8339 C267.5611,27.8339 266.1521,28.6989 266.1521,31.4279 L270.2021,31.4279 Z M266.1521,32.1869 C266.1521,34.6549 267.3001,37.1879 270.3961,37.1879 C271.5861,37.1879 272.3011,36.6689 272.8221,36.4109 L273.1681,37.0809 L270.3301,38.4229 L269.6601,38.4229 C269.1181,38.4229 267.3001,38.7049 265.5441,36.7779 C264.8951,36.0409 264.0941,34.3309 264.0941,32.7079 C264.0941,30.1729 265.4571,27.0739 269.1401,27.0739 C271.5861,27.0739 273.1681,28.8509 273.1681,31.5799 L273.1681,32.1869 L266.1521,32.1869 L266.1521,32.1869 Z" id="Fill-27" fill="#FEFEFE"></path>
                    <path d="M226.7831,35.4143 L227.3471,35.4143 C227.3251,36.9303 228.4511,37.6663 229.7061,37.6663 C230.9631,37.6663 231.6991,36.7123 231.6991,35.8033 C231.6991,34.3943 230.5731,33.8963 229.2731,32.9683 C227.5191,31.6883 226.8041,31.3433 226.8041,29.9133 C226.8041,28.0953 228.4951,27.0733 230.2691,27.0733 C230.9631,27.0733 231.8301,27.1193 232.8261,27.4443 L232.8261,29.6093 L232.2611,29.6093 C232.1971,28.8733 231.5491,27.8343 230.3131,27.8343 C229.4041,27.8343 228.6451,28.3753 228.6451,29.2193 C228.6451,30.2603 229.7511,30.8223 231.3301,31.9463 C233.3671,33.3783 233.6271,34.1783 233.6271,35.1753 C233.6271,37.4273 231.5911,38.4233 229.7061,38.4233 C228.5151,38.4233 227.5851,38.2283 226.7831,37.8393 L226.7831,35.4143" id="Fill-29" fill="#FEFEFE"></path>
                    <path d="M242.0509,28.4182 L241.1629,28.8512 L238.7579,28.8512 L238.7579,34.5472 C238.7579,35.3912 238.8019,37.1262 240.2319,37.1262 C240.8159,37.1262 241.3779,37.0812 241.8989,36.8642 L242.0509,37.4272 L239.5379,38.4232 C238.0229,38.4232 236.8099,37.9682 236.8099,35.0022 L236.8099,28.8512 L235.0759,28.8512 L235.0759,27.8552 L236.8099,27.8552 L236.8099,25.5822 C237.1989,25.1712 237.6329,24.7792 238.1739,24.3682 L238.7579,24.3682 L238.7579,27.8552 L242.0509,27.8552 L242.0509,28.4182" id="Fill-31" fill="#FEFEFE"></path>
                    <path d="M245.602,23.135 C246.295,23.135 246.879,23.719 246.879,24.391 C246.879,25.062 246.295,25.668 245.625,25.668 C244.931,25.668 244.346,25.106 244.346,24.391 C244.346,23.697 244.931,23.135 245.602,23.135 M246.815,27.119 L246.815,35.456 C246.815,37.405 246.708,37.341 248.548,37.601 L248.548,38.163 L243.133,38.163 L243.133,37.601 C244.974,37.341 244.866,37.405 244.866,35.456 L244.866,29.458 C244.866,28.463 244.195,28.549 243.133,28.549 L243.133,27.986 C244.324,27.942 245.775,27.682 246.771,27.073 L246.815,27.119" id="Fill-33" fill="#FEFEFE"></path>
                    <path d="M253.528,35.4563 C253.528,37.4043 253.42,37.3413 255.26,37.6013 L255.26,38.1633 L249.846,38.1633 L249.846,37.6013 C251.686,37.3413 251.579,37.4043 251.579,35.4563 L251.579,29.4583 C251.579,28.4633 250.908,28.5493 249.846,28.5493 L249.846,27.9853 C251.036,27.9413 252.488,27.6823 253.483,27.0733 L253.528,27.1193 L253.528,28.9803 C254.459,27.8983 256.018,27.0733 257.902,27.0733 C260.543,27.0733 261.064,28.6573 261.064,30.9093 L261.064,35.4563 C261.064,37.4043 260.955,37.3413 262.795,37.6013 L262.795,38.1633 L257.382,38.1633 L257.382,37.6013 C259.223,37.3413 259.116,37.4043 259.116,35.4563 L259.116,31.4723 C259.116,30.1063 259.029,28.2033 256.732,28.2033 C253.961,28.2033 253.528,30.5823 253.528,32.8143 L253.528,35.4563" id="Fill-35" fill="#FEFEFE"></path>
                    <path d="M291.0419,26.2307 C290.8679,24.7137 290.0449,23.5027 288.3139,23.5027 C287.0569,23.5027 285.9319,24.1517 285.9319,25.7547 C285.9319,27.2707 287.4489,28.1777 289.6149,29.8047 C291.9099,31.5147 292.6449,32.6207 292.6449,34.4177 C292.6449,36.9947 290.0039,38.4227 287.4039,38.4227 C286.0189,38.4227 284.8289,38.1637 283.7009,37.7297 C283.6139,37.6877 283.5489,37.6007 283.5489,37.4267 L283.5489,34.3077 L284.1139,34.3077 C284.3509,36.7117 285.9319,37.6667 287.5989,37.6667 C289.1359,37.6667 290.3929,36.4987 290.3929,34.9147 C290.3929,33.5087 289.6359,32.3607 286.3869,30.2157 C285.2169,29.4357 283.7669,28.5917 283.7669,26.2307 C283.7669,24.2827 285.9319,22.7457 288.4209,22.7457 C289.3539,22.7457 290.5879,22.8537 291.4549,23.1557 C291.5839,23.2007 291.6069,23.2867 291.6069,23.3927 L291.6069,26.2307 L291.0419,26.2307" id="Fill-37" fill="#FEFEFE"></path>
                    <path d="M301.0919,28.4182 L300.2039,28.8512 L297.7989,28.8512 L297.7989,34.5472 C297.7989,35.3912 297.8429,37.1262 299.2729,37.1262 C299.8579,37.1262 300.4189,37.0812 300.9409,36.8642 L301.0919,37.4272 L298.5799,38.4232 C297.0629,38.4232 295.8509,37.9682 295.8509,35.0022 L295.8509,28.8512 L294.1179,28.8512 L294.1179,27.8552 L295.8509,27.8552 L295.8509,25.5822 C296.2409,25.1712 296.6739,24.7792 297.2149,24.3682 L297.7989,24.3682 L297.7989,27.8552 L301.0919,27.8552 L301.0919,28.4182" id="Fill-39" fill="#FEFEFE"></path>
                    <path d="M311.0939,38.4231 C310.7719,38.0551 310.5969,37.3841 310.5969,36.7561 L308.6929,37.8601 C307.7819,38.3801 307.3059,38.4231 306.6769,38.4231 C304.1869,38.4231 303.5149,36.6261 303.5149,34.1981 L303.5149,29.4581 C303.5149,28.4631 302.8459,28.5491 301.7839,28.5491 L301.7839,27.9851 C302.9529,27.9421 304.4039,27.6821 305.4199,27.0731 L305.4649,27.1191 L305.4649,34.0061 C305.4649,35.6291 305.7259,37.1471 307.6319,37.1471 C309.6439,37.1471 310.5969,36.0631 310.5969,32.8581 L310.5969,29.4581 C310.5969,28.4631 309.9259,28.5491 308.8649,28.5491 L308.8649,27.9851 C310.0569,27.9421 311.5069,27.6821 312.5029,27.0731 L312.5459,27.1191 L312.5459,35.3691 C312.5459,36.4741 312.6109,37.4041 314.0619,36.8431 L314.1929,37.4471 L311.0939,38.4231" id="Fill-41" fill="#FEFEFE"></path>
                    <path d="M323.765,29.132 C323.203,28.203 322.314,27.834 320.972,27.834 C318.59,27.834 317.635,30.322 317.635,32.012 C317.635,34.265 318.633,37.188 321.273,37.188 C322.421,37.188 323.765,36.236 323.765,35.175 L323.765,29.132 Z M324.241,38.423 C323.918,38.034 323.786,37.558 323.765,36.907 L322.314,37.774 C321.47,38.251 321.189,38.423 320.669,38.423 C317.095,38.423 315.579,35.348 315.579,32.881 C315.579,29.046 318.396,27.073 321.318,27.073 C322.013,27.073 322.984,27.119 323.765,27.445 L323.765,24.413 C323.765,23.826 323.505,23.46 322.921,23.46 L322.033,23.46 L322.033,22.895 C323.332,22.854 324.719,22.594 325.67,22.246 L325.715,22.289 L325.715,35.369 C325.715,36.474 325.779,37.404 327.228,36.843 L327.36,37.447 L324.241,38.423 L324.241,38.423 Z" id="Fill-43" fill="#FEFEFE"></path>
                    <path d="M330.954,23.135 C331.648,23.135 332.231,23.719 332.231,24.391 C332.231,25.062 331.648,25.668 330.978,25.668 C330.283,25.668 329.697,25.106 329.697,24.391 C329.697,23.697 330.283,23.135 330.954,23.135 M332.167,27.119 L332.167,35.456 C332.167,37.405 332.06,37.341 333.899,37.601 L333.899,38.163 L328.485,38.163 L328.485,37.601 C330.326,37.341 330.218,37.405 330.218,35.456 L330.218,29.458 C330.218,28.463 329.547,28.549 328.485,28.549 L328.485,27.986 C329.676,27.942 331.127,27.682 332.123,27.073 L332.167,27.119" id="Fill-45" fill="#FEFEFE"></path>
                    <path d="M341.4799,31.4279 C341.9559,31.4279 342.5619,31.1259 342.5619,30.1729 C342.5619,28.7859 341.5019,27.8339 340.2879,27.8339 C338.8379,27.8339 337.4279,28.6989 337.4279,31.4279 L341.4799,31.4279 Z M337.4279,32.1869 C337.4279,34.6549 338.5779,37.1879 341.6729,37.1879 C342.8639,37.1879 343.5789,36.6689 344.0999,36.4109 L344.4469,37.0809 L341.6079,38.4229 L340.9369,38.4229 C340.3959,38.4229 338.5779,38.7049 336.8229,36.7779 C336.1729,36.0409 335.3709,34.3309 335.3709,32.7079 C335.3709,30.1729 336.7349,27.0739 340.4179,27.0739 C342.8639,27.0739 344.4469,28.8509 344.4469,31.5799 L344.4469,32.1869 L337.4279,32.1869 L337.4279,32.1869 Z" id="Fill-47" fill="#FEFEFE"></path>
                    <path d="M346.3959,35.4143 L346.9589,35.4143 C346.9379,36.9303 348.0629,37.6663 349.3179,37.6663 C350.5749,37.6663 351.3119,36.7123 351.3119,35.8033 C351.3119,34.3943 350.1859,33.8963 348.8859,32.9683 C347.1319,31.6883 346.4179,31.3433 346.4179,29.9133 C346.4179,28.0953 348.1069,27.0733 349.8809,27.0733 C350.5749,27.0733 351.4419,27.1193 352.4379,27.4443 L352.4379,29.6093 L351.8729,29.6093 C351.8099,28.8733 351.1609,27.8343 349.9249,27.8343 C349.0169,27.8343 348.2569,28.3753 348.2569,29.2193 C348.2569,30.2603 349.3629,30.8223 350.9439,31.9463 C352.9789,33.3783 353.2399,34.1783 353.2399,35.1753 C353.2399,37.4273 351.2019,38.4233 349.3179,38.4233 C348.1289,38.4233 347.1979,38.2283 346.3959,37.8393 L346.3959,35.4143" id="Fill-49" fill="#FEFEFE"></path>
                    <g id="Group-53" transform="translate(0.000000, 0.354000)">
                        <mask id="mask-2" fill="white">
                            <use xlink:href="#path-1"></use>
                        </mask>
                        <g id="Clip-52"></g>
                        <path d="M30.1869,37.5427 C29.8109,37.6377 28.8079,37.6097 28.7969,37.5967 C28.7049,37.4807 28.0999,35.4867 28.0999,35.4867 C29.5849,35.8827 30.2219,37.5337 30.1869,37.5427 M24.1669,37.6457 C24.1519,37.6227 24.1369,37.6017 24.1219,37.5777 C21.0439,32.9937 15.4579,32.8937 15.3089,32.3007 C16.1009,31.7577 20.5539,27.6997 20.5539,27.6997 C20.5539,27.6997 23.8699,28.2437 23.8209,28.5407 C23.7719,28.8377 19.3179,31.8557 19.3179,31.8557 C19.3179,31.8557 19.0599,32.3847 20.7519,32.5487 C22.7819,32.7477 26.4929,34.2807 26.9379,37.5477 C26.9379,37.5477 26.4929,37.8437 24.1669,37.6457 M19.9119,37.5477 C19.9119,37.5477 19.7479,36.1547 19.6639,35.9637 C19.5799,35.7717 21.0989,36.2107 21.5439,37.4967 C21.0989,37.6947 19.9119,37.5477 19.9119,37.5477 M10.3499,26.3077 C10.3499,26.3077 14.1559,19.4657 19.0999,15.8547 C19.0999,15.8547 28.4569,9.4547 38.2069,14.3957 C49.0279,19.8767 42.0629,31.7017 33.9179,28.8267 C27.2859,26.4867 26.2459,25.3167 19.2839,24.9097 C19.2839,24.9097 15.1609,24.7797 10.3499,26.3077 M23.3469,6.1137 C23.2999,5.1787 24.7059,4.1787 24.7059,4.1787 L24.7679,4.1787 C26.7069,6.3187 27.6889,3.6147 27.4089,3.2567 C28.0029,3.2257 29.1589,3.2877 29.2519,3.8037 C28.9089,7.0057 23.3939,7.0517 23.3469,6.1137 M47.2739,29.8487 C47.2739,29.8487 43.5499,33.6077 38.8859,35.3797 C34.2279,37.1497 32.3429,37.2117 32.3389,37.2117 C32.2949,37.2137 31.0889,35.6747 30.5369,35.1807 C29.8299,34.5457 28.9449,34.1387 28.0819,33.7477 C26.3139,32.9497 24.4329,32.4287 22.6959,31.5607 C23.9089,31.2817 25.1409,31.0057 26.2979,30.5407 C26.7359,30.3647 27.4319,30.0217 27.9099,29.6917 C27.9219,29.6847 29.0089,30.1327 29.6249,30.3667 C30.2439,30.6027 30.9789,30.8967 31.6059,31.1577 C35.9129,32.9507 40.9729,32.4587 44.4309,29.2317 C45.4559,28.2757 46.4069,26.9827 46.9979,25.7077 C48.0639,23.6097 48.1259,20.2407 47.6839,17.9907 C47.1739,15.3927 45.8319,13.0077 44.2099,10.9427 C41.3589,7.3137 37.4899,4.7417 33.4259,2.6497 C32.5369,2.1917 31.6149,1.8267 30.7139,1.4037 C30.7139,1.4037 28.8189,0.5157 26.1849,1.2557 C23.5379,1.9997 21.6999,4.4827 21.0189,5.2807 C20.3389,6.0807 17.3639,7.2667 17.3639,7.2667 C17.3639,7.2667 17.4159,8.0997 17.4739,8.1247 C17.5309,8.1497 20.3079,7.4107 21.9569,7.8437 C23.6079,8.2737 23.2539,8.2217 23.7899,8.3317 C24.3259,8.4447 26.5179,8.3687 27.2049,8.0097 C27.2049,8.0097 29.3179,7.3657 31.5339,5.0187 C31.5339,5.0187 39.9069,7.1287 43.0539,13.9387 C43.2749,14.5447 41.1339,12.7127 41.1339,12.7127 C40.7899,12.4837 37.6629,10.0557 33.7339,9.5657 C29.8269,9.0837 27.3249,9.3157 24.2519,10.2907 C24.2519,10.2907 19.9099,11.5897 17.6499,13.2007 C17.6499,13.2007 12.4219,13.2297 12.9379,6.8197 C12.9379,6.8197 13.5449,3.7317 13.8829,3.6587 C14.2229,3.5857 13.3519,2.4337 13.3519,2.4337 C13.3519,2.4337 8.9799,7.2627 5.2139,8.6217 C4.8439,8.7707 5.8189,10.3197 5.8189,10.3197 C5.8189,10.3197 9.8219,7.9717 10.2059,7.4547 C10.8709,6.8507 10.6939,7.5437 10.7519,8.0447 C10.7519,8.0447 10.5599,11.4727 15.6259,14.5887 C15.6259,14.5887 15.2129,15.1357 15.0199,15.0907 C14.8289,15.0467 10.3379,13.5247 8.7439,9.4037 C8.7439,9.4037 5.5529,13.0077 1.6679,14.3967 C1.6679,14.3967 1.9339,16.5677 2.0669,16.5677 C2.5249,16.6117 6.0999,13.9977 7.8129,12.6247 C7.8129,12.6247 9.0529,14.7807 13.8689,16.1687 C13.8689,16.1687 13.8989,16.5677 13.4999,16.6997 C13.1009,16.8337 9.3929,16.5677 6.8379,14.5157 C4.9189,16.8777 -0.0001,20.8517 -0.0001,20.8517 C-0.0001,20.8517 0.6639,22.7277 0.7529,22.8007 C0.8419,22.8747 5.7009,18.5177 6.5879,17.1287 C9.2719,18.7437 11.8459,18.4867 11.8599,18.4437 L11.8459,18.5027 C11.8459,18.5027 12.5099,17.9717 10.3389,20.5707 C7.4439,21.1027 5.8339,19.7587 5.8339,19.7587 C5.8339,19.7587 0.9509,25.7737 0.1989,26.0697 C0.4349,26.6167 1.3609,27.5537 1.3609,27.5537 C1.3609,27.5537 5.6159,22.8927 6.1029,21.5197 C7.2259,22.4347 9.1569,22.2977 9.1569,22.2977 C9.1569,22.2977 8.1969,24.4097 7.6209,24.9567 C7.0449,25.5027 4.6619,25.1827 4.8099,25.2537 C4.9569,25.3287 2.0159,29.6337 0.6419,30.8607 C0.6419,30.8607 1.7029,32.0097 1.7919,32.0097 C1.8809,32.0097 4.0909,30.2847 5.3609,27.1277 C5.5529,26.8927 6.7199,26.8487 6.7199,26.8487 C6.7199,26.8487 3.8549,31.6917 2.8649,36.6847 C2.9839,37.0687 4.6079,38.1307 4.6079,38.1307 L4.6519,38.1037 C4.6519,38.1037 5.3609,35.7387 6.5289,33.4937 C7.6949,31.2487 8.8169,28.6637 15.6999,27.8217 C15.6999,27.8217 16.4979,27.3787 12.5839,32.7857 C12.3189,33.3077 12.7339,33.3967 13.1449,33.4207 C13.1449,33.4207 18.5319,33.4717 18.3439,37.7777 C12.2889,38.1037 8.9209,42.2697 8.9209,42.2697 C8.9209,42.2697 10.3089,45.0147 10.4269,44.9997 C10.5449,44.9847 11.5939,42.4757 14.6519,41.1307 C14.6519,41.1307 16.6459,39.9267 19.8649,39.5497 C23.0959,39.1707 30.7179,40.1447 32.9199,39.6107 C32.9419,39.6057 32.9659,39.6067 32.9879,39.6047 C36.3889,39.0807 39.6809,37.6577 39.6809,37.6577 C42.7219,36.5577 48.8649,31.8367 48.8649,31.8367 L47.2739,29.8487" id="Fill-51" fill="#FEFEFE" mask="url(#mask-2)"></path>
                    </g>
                    <path d="M156.756,28.4319 L155.868,28.8669 L153.744,28.8669 L153.744,35.4709 C153.744,36.1849 153.744,36.4879 153.832,37.0079 C153.918,37.4629 154.698,37.5059 155.91,37.6139 L155.91,38.1769 L150.063,38.1769 L150.063,37.6139 C151.904,37.3539 151.796,37.4189 151.796,35.4709 L151.796,28.8669 L150.301,28.8669 L150.301,27.8699 L151.796,27.8699 L151.796,26.1149 C151.796,24.7289 152.575,23.9489 153.355,23.3859 C153.788,23.0609 154.892,22.3469 155.499,22.2599 C155.78,22.2169 156.149,22.1729 156.409,22.3699 L157.427,23.2349 C157.556,23.3649 157.448,23.5169 157.383,23.5809 L157.037,24.1009 C156.928,24.2089 156.756,24.1649 156.625,24.1229 L155.846,23.7979 C155.348,23.6029 154.914,23.4079 154.568,23.4079 C153.766,23.4079 153.744,24.1229 153.744,25.0539 L153.744,27.8699 L156.756,27.8699 L156.756,28.4319" id="Fill-54" fill="#FEFEFE"></path>
                    <path d="M166.7809,32.7863 C166.7809,30.3813 165.7629,27.8473 163.2299,27.8473 C161.3669,27.8473 159.8949,29.4283 159.8949,32.7633 C159.8949,35.5353 161.1289,37.6793 163.4899,37.6793 C165.2869,37.6793 166.7809,36.1413 166.7809,32.7863 M157.7499,32.8493 C157.7499,29.8393 159.9379,27.0903 163.5329,27.0903 C166.2399,27.0903 168.9259,28.9303 168.9259,32.6773 C168.9259,35.8153 166.6079,38.4373 163.1429,38.4373 C160.3709,38.4373 157.7499,36.5533 157.7499,32.8493" id="Fill-56" fill="#FEFEFE"></path>
                    <path d="M175.9211,29.1467 C175.7051,29.0387 175.4451,29.0597 175.1191,29.0597 C174.2321,29.0597 174.0801,30.5327 174.0801,32.0917 L174.0801,35.4707 C174.0801,36.1847 174.0801,36.4877 174.1661,37.0077 C174.2531,37.4627 175.0331,37.5057 176.2031,37.6137 L176.2031,38.1767 L170.3981,38.1767 L170.3981,37.6137 C172.2391,37.3537 172.1311,37.4187 172.1311,35.4707 L172.1311,29.4717 C172.1311,28.4757 171.4601,28.5617 170.4201,28.5617 L170.4201,27.9997 C171.5901,27.9567 173.0401,27.6957 174.0361,27.0897 L174.0801,27.1327 L174.0801,29.0827 L175.2061,27.9127 C175.7261,27.3717 176.0291,27.0897 176.3981,27.0897 C176.5921,27.0897 176.8511,27.1107 177.1981,27.7387 L177.8261,28.8437 C177.8921,28.9737 177.7831,29.0597 177.6531,29.1467 L177.0251,29.5577 C176.8951,29.6447 176.8091,29.6007 176.7001,29.5377 L175.9211,29.1467" id="Fill-58" fill="#FEFEFE"></path>
                    <path d="M269.2929,3.3899 C269.8999,3.3899 270.3999,2.9129 270.3999,2.3059 C270.3999,1.7209 269.8999,1.2009 269.2929,1.2009 C268.7519,1.2009 268.2099,1.7639 268.2099,2.3059 C268.2099,2.8909 268.7299,3.3899 269.2929,3.3899 L269.2929,3.3899 Z M273.5569,12.2529 L273.5569,12.2529 L273.5569,12.2679 L273.5569,12.7579 C273.5569,13.8419 272.2129,14.7949 271.0649,14.7949 C268.4199,14.7949 267.4229,11.8479 267.4229,9.5929 C267.4229,7.9239 268.3549,5.4309 270.7609,5.4309 C272.1049,5.4309 272.9939,5.7559 273.5569,6.6879 L273.5569,12.2529 Z M318.5969,7.7759 L318.5969,9.6409 L318.5969,11.5229 C318.5969,13.1489 318.4889,14.8189 316.4509,14.8189 C314.5869,14.8189 313.6549,13.7129 313.6549,10.0709 L313.6549,8.4739 L311.7039,8.4739 L311.7039,11.5229 C311.7039,13.1489 311.5949,14.8189 309.5569,14.8189 C309.5529,14.8189 309.5479,14.8169 309.5429,14.8169 L309.5419,14.8159 C309.0759,14.8159 308.6699,14.7469 308.3209,14.5879 C308.3169,14.5859 308.3149,14.5839 308.3109,14.5819 C308.2299,14.5449 308.1519,14.5019 308.0769,14.4539 C308.0619,14.4449 308.0489,14.4339 308.0349,14.4239 C307.9729,14.3819 307.9149,14.3379 307.8579,14.2899 C307.8269,14.2629 307.7979,14.2319 307.7679,14.2029 C307.7329,14.1669 307.6959,14.1329 307.6629,14.0949 C307.6109,14.0349 307.5599,13.9699 307.5129,13.8999 C307.5049,13.8889 307.4959,13.8789 307.4889,13.8689 C307.0149,13.1579 306.7619,11.9719 306.7619,10.0709 L306.7619,8.4739 L306.7459,8.4739 L306.7459,8.4719 L304.7939,8.4719 L304.7939,11.5219 C304.7939,13.1469 304.6689,14.8429 302.6309,14.8429 L302.6359,14.8469 L300.2489,14.8549 C298.4279,14.8529 297.4699,13.6809 297.4309,10.2209 L297.4309,8.5159 L295.4799,8.5159 L295.4799,11.5529 C295.4799,13.1789 295.3709,14.8479 293.3329,14.8479 C291.4689,14.8479 290.5369,13.7439 290.5369,10.1009 L290.5369,8.4989 L288.5859,8.4989 L288.5859,11.5529 C288.5859,13.1739 288.4769,14.8379 286.4559,14.8469 L286.4539,14.8459 C284.5899,14.8459 283.6589,13.7399 283.6589,10.0989 L283.6589,8.5009 L283.6429,8.5009 L283.6429,8.4989 L281.6919,8.4989 L281.6919,12.2549 C281.6299,13.6309 281.2869,14.8719 279.5439,14.8719 L279.5469,14.8759 L278.7349,14.8759 L278.7389,14.8649 C276.7479,14.8649 275.6449,15.1499 275.5079,12.4619 L275.5079,4.8019 C274.4239,5.0189 272.4519,4.7149 271.1299,4.6729 C268.1809,4.6729 265.3629,6.6449 265.3629,10.4599 C265.3629,12.9529 266.8809,16.0309 270.4579,16.0309 C270.9779,16.0309 271.2599,15.8579 272.1049,15.3809 L273.8109,14.3479 C274.2229,15.9319 275.3349,16.0229 276.5669,15.9859 L278.2939,15.9919 C278.3129,15.9939 278.3319,15.9939 278.3509,15.9959 L278.3529,15.9919 L280.6339,15.9979 C282.5429,15.9979 283.0519,15.1059 283.5499,14.0649 C284.4379,15.1499 285.7619,15.9729 287.4959,15.9729 L287.4929,15.9709 C287.5189,15.9719 287.5419,15.9749 287.5669,15.9749 C289.4749,15.9749 289.9299,15.1079 290.4289,14.0669 C291.3169,15.1519 292.6399,15.9749 294.3749,15.9749 C295.6699,15.9749 296.4489,15.5149 296.8979,14.7459 C297.0539,14.5059 297.1839,14.2429 297.3169,13.9639 C298.1369,14.9639 299.1569,15.8419 300.6709,15.9729 L300.6759,15.9819 L300.8009,15.9819 C300.8869,15.9859 302.9059,15.9829 302.9059,15.9829 L303.6419,15.9719 C303.8949,15.9719 304.1139,15.9649 304.3009,15.9359 C305.7399,15.7689 306.1939,14.9609 306.6369,14.0359 C307.5259,15.1199 308.8489,15.9439 310.5829,15.9439 L310.5789,15.9389 C310.6149,15.9399 310.6479,15.9459 310.6839,15.9459 C312.5919,15.9459 313.0479,15.0779 313.5459,14.0379 C314.4359,15.1219 315.7569,15.9459 317.4919,15.9459 C319.9199,15.9459 320.5479,14.3409 320.5479,12.0869 L320.5479,10.1109 C320.5509,9.1209 321.2209,9.2069 322.2819,9.2069 L322.2819,8.6439 C321.0899,8.5999 319.6369,8.3399 318.6399,7.7329 L318.5969,7.7759 Z M340.0389,14.8719 C339.2359,14.8719 338.3249,14.7439 338.0229,14.3519 C337.6759,13.9399 337.6109,12.7529 337.6109,12.1239 L337.6109,11.8059 C337.6109,10.7019 337.6759,9.4649 337.9789,8.6409 C338.2399,7.9049 339.2799,6.9729 340.4499,6.9729 C342.0539,6.9729 343.6589,8.1429 343.6589,11.2649 C343.6589,14.3099 341.7939,14.8719 340.0389,14.8719 L340.0389,14.8719 Z M331.2599,11.9179 C331.2599,12.5469 331.1939,13.9319 330.8469,14.3449 C330.5439,14.7339 329.6329,14.8649 328.8319,14.8649 C327.0749,14.8649 325.2109,14.3019 325.2109,11.2559 C325.2109,8.4939 326.8159,7.7229 328.4199,7.7229 C329.5909,7.7229 330.6309,8.6549 330.8899,9.3909 C331.1939,10.2149 331.2599,10.6929 331.2599,11.7989 L331.2599,11.9179 Z M341.2959,5.9539 C340.9449,5.9539 340.5939,5.9979 340.2519,6.0799 C337.7119,6.6339 335.6679,9.1019 335.6679,12.0759 L335.6739,12.0669 C335.6679,12.1279 335.6599,12.1889 335.6599,12.2429 L335.6599,14.5689 C335.3539,14.6559 335.0329,14.6879 334.7169,14.6879 C334.1289,14.6879 333.4699,14.5649 333.2109,14.2129 L333.2109,12.2339 C333.2109,12.1799 333.2019,12.1189 333.1949,12.0589 L333.2029,12.0669 C333.2029,9.6779 331.1589,7.3839 328.6169,6.8299 C328.2749,6.7479 327.9259,6.7039 327.5739,6.7039 C325.0599,6.7039 323.0649,8.3179 323.0649,11.1919 C323.0649,14.5729 325.7099,15.9919 328.7229,15.9919 C329.7569,15.9919 330.5759,15.8199 331.3259,15.7109 L331.3259,15.8819 C331.3259,17.6169 330.0469,19.0899 328.3549,19.0899 C328.2289,19.0899 327.4539,18.6909 326.6789,18.3759 L326.6749,18.3789 C326.5849,18.3389 326.4969,18.2999 326.3899,18.2579 L325.6099,17.9329 C325.4789,17.8889 325.3059,17.8459 325.1969,17.9549 L324.8509,18.4749 C324.7859,18.5399 324.6769,18.6919 324.8069,18.8209 L325.8259,19.6889 C326.0309,19.8419 326.2999,19.8469 326.5449,19.8219 C327.0739,19.8719 327.6979,19.8279 328.0739,19.8279 C330.4159,19.8279 332.9289,18.3849 333.1859,15.7269 C333.1939,15.7289 333.2019,15.7289 333.2109,15.7309 L333.2109,15.6139 C333.6789,15.7109 334.1899,15.8139 334.7999,15.8139 C335.1489,15.8139 335.4899,15.7769 335.8199,15.7109 C337.1199,15.4489 338.2939,15.9999 340.1469,15.9999 C343.1599,15.9999 345.8049,14.5809 345.8049,11.1989 C345.8049,7.2759 343.8109,5.9539 341.2959,5.9539 L341.2959,5.9539 Z M273.6509,3.3899 C274.2579,3.3899 274.7569,2.9129 274.7569,2.3059 C274.7569,1.7209 274.2579,1.2009 273.6509,1.2009 C273.1089,1.2009 272.5669,1.7639 272.5669,2.3059 C272.5669,2.8909 273.0869,3.3899 273.6509,3.3899 L273.6509,3.3899 Z M324.9389,4.6459 C324.8389,4.6759 324.7399,4.7049 324.6329,4.7439 C324.4829,4.8089 324.4199,4.9409 324.3359,5.1799 L324.1499,5.8769 C324.1299,5.9639 324.1749,6.0059 324.2389,6.0479 L324.6309,6.1299 C324.7179,6.1509 324.7829,6.1489 324.8259,6.0829 C325.1429,5.6029 325.4379,4.9939 326.3039,4.9789 C326.4319,4.9999 326.5559,5.0209 326.6959,5.0419 L328.3129,5.2569 L328.2119,4.7689 C327.0449,4.5919 325.7439,4.5099 325.4999,3.3419 C325.3489,2.6199 325.5999,2.2369 326.1939,2.1119 C326.7259,2.0009 327.2559,2.1059 327.6369,2.7629 L327.6089,1.8829 L326.3889,1.4519 C326.0299,1.3269 325.6169,1.2579 325.1929,1.3469 C324.2809,1.5369 323.6669,2.4179 323.8679,3.3739 C324.0089,4.0519 324.3539,4.4109 324.9389,4.6459 L324.9389,4.6459 Z" id="Fill-60" fill="#FEFEFE"></path>
                    <path d="M227.171,2.3371 L227.171,17.9031 L227.758,17.9031 C228.299,17.4931 228.733,17.1031 229.122,16.6911 L229.122,1.1231 L228.537,1.1231 C227.995,1.5351 227.562,1.9251 227.171,2.3371 L227.171,2.3371 Z M233.346,16.9191 C233.346,17.8511 233.325,18.5661 232.523,18.5661 C232.175,18.5661 231.742,18.3721 231.244,18.1761 L230.463,17.8511 C230.332,17.8081 230.16,17.7651 230.051,17.8721 L229.704,18.3931 C229.639,18.4581 229.531,18.6091 229.66,18.7391 L230.68,19.6071 C230.941,19.8021 231.309,19.7581 231.59,19.7161 C232.197,19.6291 233.303,18.9131 233.737,18.5881 C234.516,18.0241 235.297,17.2441 235.297,15.8571 L235.297,9.6961 L233.346,9.6961 L233.346,16.9191 Z M194.269,7.5971 L194.269,9.4611 L194.271,9.4611 L194.271,11.5091 C194.271,13.1351 194.161,14.8041 192.124,14.8041 L181.851,14.8041 C179.814,14.8041 179.705,13.1351 179.705,11.5091 L179.705,8.4451 L177.754,8.4451 L177.754,12.0721 C177.754,14.3271 178.383,15.9311 180.81,15.9311 L193.165,15.9311 C195.592,15.9311 196.222,14.3271 196.222,12.0721 L196.222,9.9311 C196.224,8.9411 196.896,9.0261 197.955,9.0261 L197.955,8.4631 C196.763,8.4201 195.311,8.1601 194.313,7.5531 L194.269,7.5971 Z M220.689,7.6701 L220.689,11.4951 C220.689,13.1211 220.581,14.7901 218.543,14.7901 C216.68,14.7901 215.747,13.6851 215.747,10.0421 L215.747,8.4311 L213.796,8.4311 L213.796,11.4951 C213.796,13.1161 213.687,14.7791 211.664,14.7891 L211.659,14.7821 C209.795,14.7821 208.864,13.6781 208.864,10.0361 L208.864,8.4391 L208.854,8.4391 L208.854,8.4311 L206.903,8.4311 L206.903,12.1021 C206.85,13.5101 206.531,14.8011 204.764,14.8091 L204.767,14.7961 C202.777,14.7961 201.674,15.0811 201.536,12.3941 L201.536,4.8031 L201.536,1.3471 L200.95,1.3471 C200.409,1.7581 199.975,2.1491 199.585,2.5611 L199.585,11.5891 L199.585,12.2681 C199.585,13.1181 199.678,14.0851 200.021,14.8701 C200.201,15.2801 200.465,15.7491 200.926,15.8401 C201.562,15.9661 203.415,15.9471 204.163,15.9371 L205.84,15.9361 C207.747,15.9361 208.257,15.0431 208.755,14.0031 C209.541,14.9611 210.668,15.7141 212.119,15.8751 C212.332,15.9011 212.552,15.9171 212.776,15.9171 C214.685,15.9171 215.14,15.0501 215.638,14.0091 C216.528,15.0931 217.85,15.9171 219.584,15.9171 C222.012,15.9171 222.64,14.3131 222.64,12.0581 L222.64,10.0121 C222.64,9.0141 223.312,9.1011 224.374,9.1011 L224.374,8.5371 C223.182,8.4941 221.729,8.2331 220.732,7.6271 L220.689,7.6701 Z M189.302,7.2761 C189.909,7.2761 190.407,6.8001 190.407,6.1921 C190.407,5.6071 189.909,5.0871 189.302,5.0871 C188.76,5.0871 188.218,5.6501 188.218,6.1921 C188.218,6.7781 188.738,7.2761 189.302,7.2761 L189.302,7.2761 Z M184.944,7.2761 C185.551,7.2761 186.05,6.8001 186.05,6.1921 C186.05,5.6071 185.551,5.0871 184.944,5.0871 C184.403,5.0871 183.86,5.6501 183.86,6.1921 C183.86,6.7781 184.381,7.2761 184.944,7.2761 L184.944,7.2761 Z M252.049,2.1071 L252.049,12.2221 C252.049,13.0671 252.005,14.8021 250.575,14.8021 C250.425,14.8021 250.205,14.8021 249.961,14.8011 L249.955,14.7951 C248.285,14.7951 247.362,13.9071 247.19,11.0991 C247.189,11.0931 247.183,11.0851 247.182,11.0781 C247.183,11.0761 247.187,11.0751 247.187,11.0721 C247.187,7.9791 244.819,5.9821 241.921,5.9821 C241.197,5.9821 240.159,6.1201 239.512,6.4911 L238.828,7.8031 C238.769,7.8821 238.769,7.9601 238.828,7.9991 L239.512,8.4301 C239.61,8.4881 239.728,8.5081 239.806,8.4501 L240.805,7.2941 C241.079,6.9811 241.608,6.6691 242.351,6.6691 C243.408,6.6691 244.952,7.4421 245.208,9.7471 L245.208,11.5011 C245.208,13.1271 245.099,14.7951 243.061,14.7951 L243.048,14.7951 L243.062,14.8111 L239.403,14.8111 C239.073,14.8091 238.663,14.6251 238.19,14.4401 L237.447,14.1311 C237.323,14.0891 237.159,14.0491 237.055,14.1501 L236.726,14.6461 C236.665,14.7091 236.56,14.8531 236.684,14.9771 L237.653,15.8021 C237.858,15.9551 238.13,15.9521 238.371,15.9241 L244.252,15.9251 L244.251,15.9211 C246.104,15.9001 246.557,15.0441 247.05,14.0151 C247.94,15.0991 249.263,15.9231 250.997,15.9231 L250.99,15.9151 L251.251,15.9161 C252.786,15.9161 254,15.4611 254,12.4911 L254,0.8941 L253.414,0.8941 C252.873,1.3061 252.438,1.6951 252.049,2.1071 L252.049,2.1071 Z M255.46,0.0001 L255.416,0.0431 L255.416,15.9301 L257.367,15.9301 L257.367,2.1671 C257.367,1.5821 257.627,1.2131 258.191,1.2131 L259.102,1.2131 L259.102,0.6491 C257.801,0.6071 256.414,0.3461 255.46,0.0001 L255.46,0.0001 Z" id="Fill-62" fill="#FEFEFE"></path>
                    <path d="M91.996,17.6272 C91.454,17.6272 90.912,18.1892 90.912,18.7312 C90.912,19.3162 91.432,19.8152 91.996,19.8152 C92.603,19.8152 93.101,19.3392 93.101,18.7312 C93.101,18.1472 92.603,17.6272 91.996,17.6272 L91.996,17.6272 Z M96.353,17.6272 C95.811,17.6272 95.269,18.1892 95.269,18.7312 C95.269,19.3162 95.79,19.8152 96.353,19.8152 C96.96,19.8152 97.458,19.3392 97.458,18.7312 C97.458,18.1472 96.96,17.6272 96.353,17.6272 L96.353,17.6272 Z M77.719,17.6272 C77.176,17.6272 76.634,18.1892 76.634,18.7312 C76.634,19.3162 77.156,19.8152 77.719,19.8152 C78.326,19.8152 78.824,19.3392 78.824,18.7312 C78.824,18.1472 78.326,17.6272 77.719,17.6272 L77.719,17.6272 Z M73.361,17.6272 C72.82,17.6272 72.277,18.1892 72.277,18.7312 C72.277,19.3162 72.798,19.8152 73.361,19.8152 C73.969,19.8152 74.467,19.3392 74.467,18.7312 C74.467,18.1472 73.969,17.6272 73.361,17.6272 L73.361,17.6272 Z M66.196,3.3092 C66.803,3.3092 67.301,2.8332 67.301,2.2262 C67.301,1.6412 66.803,1.1202 66.196,1.1202 C65.654,1.1202 65.111,1.6842 65.111,2.2262 C65.111,2.8112 65.632,3.3092 66.196,3.3092 L66.196,3.3092 Z M61.838,3.3092 C62.445,3.3092 62.944,2.8332 62.944,2.2262 C62.944,1.6412 62.445,1.1202 61.838,1.1202 C61.297,1.1202 60.755,1.6842 60.755,2.2262 C60.755,2.8112 61.275,3.3092 61.838,3.3092 L61.838,3.3092 Z M84.399,6.8182 C85.006,6.8182 85.505,6.3412 85.505,5.7342 C85.505,5.1482 85.006,4.6292 84.399,4.6292 C83.857,4.6292 83.315,5.1922 83.315,5.7342 C83.315,6.3192 83.835,6.8182 84.399,6.8182 L84.399,6.8182 Z M156.65,3.4832 C157.257,3.4832 157.756,3.0072 157.756,2.3992 C157.756,1.8142 157.257,1.2952 156.65,1.2952 C156.108,1.2952 155.566,1.8572 155.566,2.3992 C155.566,2.9852 156.087,3.4832 156.65,3.4832 L156.65,3.4832 Z M159.905,11.8722 C159.905,12.5002 159.838,13.8862 159.492,14.2982 C159.241,14.6202 158.577,14.7632 157.902,14.8042 L157.042,14.8042 C155.426,14.7072 153.856,14.0062 153.856,11.2102 C153.856,8.4462 155.46,7.6762 157.064,7.6762 C158.235,7.6762 159.275,8.6072 159.535,9.3452 C159.838,10.1692 159.905,10.6472 159.905,11.7522 L159.905,11.8722 Z M66.101,12.1732 L66.101,12.1732 L66.101,12.1872 L66.101,12.6782 C66.101,13.7622 64.757,14.7162 63.609,14.7162 C60.965,14.7162 59.967,11.7672 59.967,9.5132 C59.967,7.8442 60.9,5.3512 63.306,5.3512 C64.65,5.3512 65.538,5.6762 66.101,6.6082 L66.101,12.1732 Z M165.25,2.1092 L165.25,12.2242 C165.25,13.0682 165.206,14.8042 163.776,14.8042 L161.856,14.8042 L161.856,14.3382 L161.855,14.3382 L161.855,12.1872 C161.855,12.1342 161.847,12.0722 161.84,12.0132 L161.848,12.0202 C161.848,9.6322 159.803,7.3382 157.262,6.7822 C156.92,6.7012 156.57,6.6572 156.218,6.6572 C153.704,6.6572 151.709,8.2712 151.709,11.1452 C151.709,12.8292 152.366,14.0252 153.397,14.8042 L147.11,14.8042 C145.48,14.7802 144.578,13.8812 144.407,11.1082 C144.407,11.1072 144.406,11.1062 144.406,11.1062 L144.406,6.3362 L144.38,4.3862 L144.38,0.8962 L143.793,0.8962 C143.252,1.3072 142.818,1.6962 142.429,2.1092 L142.429,9.6982 L142.426,9.6972 L142.426,11.5112 C142.426,13.1302 142.317,14.7932 140.301,14.8052 L140.266,14.8052 L138.218,14.8112 C136.397,14.8092 135.44,13.6372 135.4,10.1772 L135.4,8.4732 L133.449,8.4732 L133.449,11.5102 C133.449,13.1352 133.341,14.8052 131.303,14.8052 C129.439,14.8052 128.507,13.7002 128.507,10.0572 L128.507,8.4562 L126.556,8.4562 L126.556,11.5102 C126.556,13.1312 126.447,14.7942 124.426,14.8042 L124.424,14.8032 C122.56,14.8032 121.628,13.6962 121.628,10.0552 L121.628,8.4582 L121.614,8.4582 L121.614,8.4562 L119.663,8.4562 L119.663,12.2122 C119.599,13.5872 119.257,14.8292 117.514,14.8292 L117.517,14.8322 L113.385,14.8322 C114.226,14.1502 114.647,13.1682 114.647,11.9052 C114.647,6.7512 108.331,7.0942 105.014,7.2892 L105.014,8.0422 C107.724,7.9992 112.479,7.2702 112.479,11.6892 C112.479,13.4212 111.309,14.7782 108.881,14.7002 L106.551,14.7002 L106.552,14.6942 C105.404,14.6942 104.06,13.7412 104.06,12.6572 L104.06,12.4932 L104.061,12.4932 L104.061,6.3362 L104.035,4.3862 L104.035,0.8962 L103.45,0.8962 C102.907,1.3072 102.474,1.6962 102.084,2.1092 L102.084,12.1932 C102.02,13.5692 101.678,14.8112 99.935,14.8112 L99.938,14.8142 L99.902,14.8142 L99.915,14.8042 L99.05,14.8072 L98.7,14.8042 L98.699,14.8082 L97.564,14.8112 L97.557,14.8042 L97.555,14.8032 C96.872,14.8032 96.316,14.6512 95.883,14.2852 C95.873,14.2752 95.86,14.2692 95.851,14.2592 C95.123,13.6142 94.747,12.3502 94.747,10.0752 L94.743,8.4372 L92.784,8.4372 L92.784,11.4602 C92.784,13.0862 92.658,14.7822 90.621,14.7822 L90.624,14.7852 L89.784,14.7882 L89.435,14.7852 L89.432,14.7892 L88.299,14.7932 L88.29,14.7842 C87.606,14.7842 87.05,14.6332 86.617,14.2662 C86.606,14.2572 86.595,14.2492 86.585,14.2412 C85.858,13.5962 85.48,12.3312 85.48,10.0562 L85.477,8.4182 L83.518,8.4182 L83.518,11.4402 C83.518,13.0662 83.392,14.7632 81.354,14.7632 L81.359,14.7672 L79.008,14.7742 L79.001,14.7672 L78.999,14.7662 C78.316,14.7662 77.759,14.6142 77.327,14.2482 C77.316,14.2372 77.304,14.2312 77.294,14.2232 C76.567,13.5792 76.203,12.2932 76.203,10.0182 L76.203,8.4212 L76.188,8.4212 L76.188,8.4192 L74.237,8.4192 L74.237,12.1752 C74.174,13.5512 73.831,14.7922 72.088,14.7922 L72.092,14.7962 L71.279,14.7962 L71.283,14.7852 C69.293,14.7852 68.19,15.0692 68.052,12.3822 L68.052,4.7232 C66.969,4.9392 64.996,4.6362 63.674,4.5922 C60.726,4.5922 57.907,6.5642 57.907,10.3802 C57.907,12.8732 59.425,15.9512 63.002,15.9512 C63.522,15.9512 63.804,15.7772 64.65,15.3012 L66.355,14.2682 C66.768,15.8532 67.879,15.9422 69.111,15.9052 L70.839,15.9112 C70.857,15.9132 70.876,15.9142 70.895,15.9172 L70.897,15.9112 L73.179,15.9182 C75.087,15.9182 75.596,15.0252 76.094,13.9842 C76.339,14.2822 76.619,14.5582 76.928,14.8052 C77.588,15.3772 78.379,15.8052 79.394,15.8932 L79.399,15.9012 L79.524,15.9012 C79.61,15.9072 81.629,15.9022 81.629,15.9022 L82.365,15.8912 C82.618,15.8922 82.837,15.8862 83.024,15.8552 C84.456,15.6892 84.912,14.8912 85.353,13.9712 C85.595,14.2602 85.921,14.5862 86.218,14.8222 C86.871,15.3892 87.652,15.8102 88.652,15.9032 L88.66,15.9122 L88.664,15.9212 L88.791,15.9212 C88.875,15.9252 90.895,15.9222 90.895,15.9222 L91.631,15.9112 C91.883,15.9112 92.102,15.9032 92.29,15.8752 C93.721,15.7092 94.178,14.9092 94.619,13.9892 C94.861,14.2792 95.186,14.6052 95.485,14.8422 C96.144,15.4142 96.934,15.8422 97.951,15.9302 L97.955,15.9392 L98.081,15.9392 C98.167,15.9432 100.186,15.9402 100.186,15.9402 L100.17,15.9352 L101.026,15.9372 C102.779,15.9372 103.351,15.1832 103.818,14.2532 L103.819,14.2542 L105.526,15.2872 C106.34,15.7462 106.632,15.9222 107.117,15.9352 L107.121,15.9392 L109.272,15.9392 C109.344,15.9392 109.411,15.9342 109.483,15.9332 C109.499,15.9442 109.511,15.9532 109.513,15.9532 L109.514,15.9472 L118.605,15.9552 C120.513,15.9552 121.021,15.0622 121.519,14.0222 C122.409,15.1062 123.731,15.9302 125.465,15.9302 L125.464,15.9282 C125.488,15.9282 125.512,15.9322 125.537,15.9322 C127.444,15.9322 127.9,15.0642 128.398,14.0232 C129.288,15.1072 130.609,15.9322 132.343,15.9322 C133.64,15.9322 134.42,15.4722 134.869,14.7022 C135.023,14.4632 135.155,14.1972 135.287,13.9212 C136.108,14.9212 137.126,15.7992 138.642,15.9302 L138.645,15.9392 L138.771,15.9392 C138.856,15.9422 141.353,15.9342 141.353,15.9342 L141.35,15.9302 C141.369,15.9312 141.388,15.9332 141.407,15.9332 C143.315,15.9332 143.77,15.0652 144.269,14.0242 C145.157,15.1082 146.48,15.9332 148.215,15.9332 L148.182,15.8982 L148.216,15.9172 L156.687,15.9172 C156.911,15.9342 157.138,15.9442 157.368,15.9442 C157.62,15.9442 157.86,15.9342 158.089,15.9172 L164.469,15.9182 C165.987,15.9182 167.201,15.4622 167.201,12.4932 L167.201,0.8962 L166.615,0.8962 C166.074,1.3072 165.639,1.6962 165.25,2.1092 L165.25,2.1092 Z M168.66,0.0012 L168.617,0.0442 L168.617,15.9322 L170.568,15.9322 L170.568,2.1692 C170.568,1.5842 170.828,1.2152 171.392,1.2152 L172.303,1.2152 L172.303,0.6502 C171.002,0.6082 169.615,0.3482 168.66,0.0012 L168.66,0.0012 Z" id="Fill-64" fill="#FEFEFE"></path>
                </g>
            </g>
        </g>
    </g>
</svg>