<?xml version="1.0" encoding="UTF-8"?>
<svg width="383px" height="164px" viewBox="0 0 383 164" version="1.1" xmlns="http://www.w3.org/2000/svg" xmlns:xlink="http://www.w3.org/1999/xlink">
    <!-- Generator: Sketch 53.2 (72643) - https://sketchapp.com -->
    <title>Group</title>
    <desc>Created with Sketch.</desc>
    <defs>
        <polygon id="path-1" points="0 0 64 0 64 57 0 57"></polygon>
        <polygon id="path-3" points="0.377923077 0.40528877 16.2729231 0.40528877 16.2729231 26.5986096 0.377923077 26.5986096"></polygon>
    </defs>
    <g id="Home" stroke="none" stroke-width="1" fill="none" fill-rule="evenodd">
        <g id="Home_4" transform="translate(-115.000000, -163.000000)">
            <g id="Group" transform="translate(115.000000, 163.000000)">
                <g id="Group-54">
                    <mask id="mask-2" fill="white">
                        <use xlink:href="#path-1"></use>
                    </mask>
                    <g id="Clip-53"></g>
                    <path d="M39.535962,47.3482459 C39.0440855,47.4692199 37.7299564,47.4349683 37.7152075,47.4160205 C37.5957412,47.2666249 36.8037241,44.6860893 36.8037241,44.6860893 C38.7483696,45.1991356 39.5824211,47.3365858 39.535962,47.3482459 M31.6519254,47.4801513 C31.6320144,47.4517297 31.6128408,47.4225794 31.5929297,47.393429 C27.5613117,41.4598732 20.2458461,41.3294253 20.0504229,40.5634996 C21.0880096,39.8602472 26.920471,34.608081 26.920471,34.608081 C26.920471,34.608081 31.2625539,35.3120622 31.1983961,35.696847 C31.1342382,36.080903 25.3003019,39.98778 25.3003019,39.98778 C25.3003019,39.98778 24.9625516,40.671356 27.1793146,40.8841536 C29.8385454,41.1414055 34.697578,43.1258163 35.2808978,47.354076 C35.2808978,47.354076 34.697578,47.738132 31.6519254,47.4801513 M26.079045,47.354076 C26.079045,47.354076 25.8637107,45.551855 25.7545687,45.3040769 C25.6439518,45.0548414 27.6335815,45.6240021 28.2161639,47.2877589 C27.6335815,47.5450109 26.079045,47.354076 26.079045,47.354076 M13.5557348,32.8051313 C13.5557348,32.8051313 18.5393958,23.9507094 25.0163851,19.2757204 C25.0163851,19.2757204 37.2705275,10.9933743 50.0408822,17.3875058 C64.2131219,24.4827034 55.0916507,39.7873713 44.4230175,36.0670566 C35.737377,33.0376054 34.375314,31.5239729 25.2567926,30.9970802 C25.2567926,30.9970802 19.8564745,30.8287368 13.5557348,32.8051313 M30.5789413,6.66964711 C30.5169958,5.45772089 32.3576614,4.16417366 32.3576614,4.16417366 L32.4395179,4.16417366 C34.9778075,6.93418663 36.264651,3.43541465 35.8974028,2.97192393 C36.6754085,2.9296559 38.1908603,3.01127691 38.3125389,3.67882016 C37.8619593,7.82400137 30.6401493,7.88375961 30.5789413,6.66964711 M61.9167147,37.3882966 C61.9167147,37.3882966 57.0385085,42.2549493 50.9302422,44.5483539 C44.8293504,46.8388434 42.3603807,46.9197357 42.3544811,46.9197357 C42.2969603,46.9219219 40.7188256,44.9294948 39.995391,44.2889156 C39.0691586,43.4690618 37.9098933,42.9414403 36.7793884,42.4356815 C34.464545,41.40303 32,40.7281992 29.7257161,39.6044528 C31.3141751,39.2437171 32.9277072,38.8873539 34.443159,38.285399 C35.0168921,38.0565686 35.9283755,37.6134832 36.5544673,37.1864304 C36.5706911,37.175499 37.9932247,37.7570487 38.7999908,38.0594837 C39.611919,38.3641049 40.5735487,38.7452459 41.3950637,39.0833901 C47.0357892,41.4044875 53.6632176,40.7675521 58.1926117,36.5910343 C59.5347637,35.3536015 60.7810476,33.6796421 61.5538912,32.0304604 C62.9506142,29.3136469 63.0309958,24.9534818 62.452838,22.0420895 C61.7847118,18.678138 60.0273777,15.5925724 57.9027954,12.9194843 C54.1691056,8.22190379 49.1013758,4.89439018 43.7792271,2.18559296 C42.6140622,1.59238313 41.4068629,1.12087606 40.226949,0.573578044 C40.226949,0.573578044 37.7439679,-0.577132423 34.2949324,0.381185667 C30.8274607,1.34460507 28.4211739,4.55916104 27.5296015,5.59181254 C26.6380292,6.62665033 22.7421013,8.15995927 22.7421013,8.15995927 C22.7421013,8.15995927 22.8092089,9.23925136 22.8859033,9.27204551 C22.9603853,9.30411091 26.5974696,8.34870786 28.7581868,8.90766601 C30.9196414,9.46516665 30.4565252,9.39593454 31.1578365,9.54022883 C31.8606227,9.68598063 34.730763,9.58832692 35.6304473,9.12264992 C35.6304473,9.12264992 38.3980826,8.29040714 41.3006706,5.25075333 C41.3006706,5.25075333 52.2679695,7.9835996 56.3888185,16.797211 C56.6786348,17.5813557 53.8741272,15.2107026 53.8741272,15.2107026 C53.4235476,14.9148265 49.3285092,11.7695026 44.1826101,11.1376686 C39.0647339,10.5131221 35.7875233,10.8133708 31.7632798,12.0755814 C31.7632798,12.0755814 26.0760952,13.7575572 23.1159864,15.8418079 C23.1159864,15.8418079 16.2687991,15.8789746 16.9450372,7.58278214 C16.9450372,7.58278214 17.7392667,3.58699652 18.1832093,3.49225785 C18.6278893,3.39679042 17.4877976,1.90429198 17.4877976,1.90429198 C17.4877976,1.90429198 11.7607909,8.15558672 6.82875118,9.91481096 C6.34424907,10.1064746 7.62076833,12.1134769 7.62076833,12.1134769 C7.62076833,12.1134769 12.8640103,9.07309431 13.3669486,8.4048223 C14.2378725,7.62140637 14.0055769,8.51996622 14.0822713,9.16929049 C14.0822713,9.16929049 13.8308022,13.6045178 20.4663425,17.6381989 C20.4663425,17.6381989 19.9243196,18.3465526 19.672113,18.2882519 C19.4213813,18.2306799 13.5402484,16.2608444 11.451801,10.9270572 C11.451801,10.9270572 7.27269375,15.5925724 2.18431544,17.3889633 C2.18431544,17.3889633 2.53386491,20.2005155 2.70716475,20.2005155 C3.3074459,20.2573587 7.98949139,16.8730019 10.2328025,15.0970162 C10.2328025,15.0970162 11.8573964,17.8874345 18.1647731,19.6838254 C18.1647731,19.6838254 18.2031203,20.2005155 17.680271,20.3703164 C17.1588966,20.543761 12.3020764,20.2005155 8.95554583,17.5427314 C6.44159196,20.6006042 0,25.7434565 0,25.7434565 C0,25.7434565 0.869448989,28.1716815 0.986702924,28.2671489 C1.10248197,28.3626164 7.46737953,22.7227504 8.62811974,20.9256307 C12.1435255,23.0164403 15.5143917,22.6841262 15.5328279,22.6287405 L15.5143917,22.7045315 C15.5143917,22.7045315 16.3845782,22.016583 13.5409859,25.3805345 C9.74903786,26.068483 7.64141682,24.3296641 7.64141682,24.3296641 C7.64141682,24.3296641 1.24628396,32.1149965 0.260318485,32.4983237 C0.569308414,33.2059487 1.7824073,34.4193325 1.7824073,34.4193325 C1.7824073,34.4193325 7.35528772,28.3852079 7.99391607,26.6077647 C9.46364621,27.7919981 11.992349,27.6163672 11.992349,27.6163672 C11.992349,27.6163672 10.7350033,30.3499422 9.98133339,31.0575672 C9.22618856,31.7651922 6.10605397,31.3490708 6.3000023,31.4423519 C6.49247574,31.5392769 2.63931971,37.112097 0.84068859,38.6986053 C0.84068859,38.6986053 2.23077455,40.1867312 2.34655359,40.1867312 C2.46233263,40.1867312 5.35828359,37.9545424 7.02196207,33.8669331 C7.27269375,33.5623119 8.80141958,33.5047399 8.80141958,33.5047399 C8.80141958,33.5047399 5.04781877,39.7749824 3.75286337,46.2361597 C3.90698961,46.7339021 6.03525914,48.1090703 6.03525914,48.1090703 L6.0920425,48.0726324 C6.0920425,48.0726324 7.02196207,45.0125733 8.5506879,42.1070112 C10.0779388,39.2021778 11.547669,35.8564452 20.5622105,34.7662217 C20.5622105,34.7662217 21.6079091,34.1934172 16.4811836,41.1902324 C16.1345839,41.8650632 16.6780817,41.9802071 17.2164174,42.0122725 C17.2164174,42.0122725 24.272302,42.0771321 24.0252575,47.6514097 C16.0947618,48.0726324 11.6833591,53.4639915 11.6833591,53.4639915 C11.6833591,53.4639915 13.5019012,57.0181492 13.6560275,56.9999302 C13.8108912,56.9795249 15.1847533,53.7307173 19.1898232,51.9918983 C19.1898232,51.9918983 21.80112,50.4338116 26.017837,49.945543 C30.2485654,49.4550882 40.2321112,50.7143838 43.116263,50.024249 C43.1457608,50.0176902 43.1759961,50.0198765 43.2047565,50.0155039 C47.6596686,49.3384868 51.9715161,47.4969128 51.9715161,47.4969128 C55.9544627,46.0721889 64,39.9630022 64,39.9630022 L61.9167147,37.3882966" id="Fill-52" fill="#5C2946" mask="url(#mask-2)"></path>
                </g>
                <g id="Group-2" transform="translate(0.000000, 76.000000)">
                    <path d="M9.16547458,30.9292029 C9.16547458,35.4453607 8.98569495,35.2016195 13,35.7370923 L13,37 L1,37 L1,35.7370923 C5.01546491,35.2016195 4.83568529,35.4453607 4.83568529,30.9292029 L4.83568529,9.07079712 C4.83568529,4.55085061 5.01546491,4.79585469 1,4.26038184 L1,3 L13,3 L13,4.26038184 C8.98569495,4.79585469 9.16547458,4.55085061 9.16547458,9.07079712 L9.16547458,30.9292029" id="Fill-1" fill="#382F34"></path>
                    <path d="M25.5291304,30.6538032 C25.5291304,35.2230121 25.2786957,35.0685488 29.5413043,35.679801 L29.5413043,37 L17,37 L17,35.679801 C21.2626087,35.0685488 21.016087,35.2230121 21.016087,30.6538032 L21.016087,16.5884026 C21.016087,14.256931 19.46,14.4562811 17,14.4562811 L17,13.1360821 C19.76,13.0344267 23.1213043,12.4218544 25.43,11 L25.5291304,11.1042957 L25.5291304,15.4715142 C27.6865217,12.9314512 31.2982609,11 35.663913,11 C41.7852174,11 42.9878261,14.7084391 42.9878261,19.9918757 L42.9878261,30.6538032 C42.9878261,35.2230121 42.7373913,35.0685488 47,35.679801 L47,37 L34.4586957,37 L34.4586957,35.679801 C38.7226087,35.0685488 38.4721739,35.2230121 38.4721739,30.6538032 L38.4721739,21.3120747 C38.4721739,18.1092719 38.2713043,13.6430385 32.9534783,13.6430385 C26.5334783,13.6430385 25.5291304,19.2261603 25.5291304,24.4581091 L25.5291304,30.6538032" id="Fill-3" fill="#382F34"></path>
                    <path d="M51,30.104331 L52.3151226,30.104331 C52.2650979,33.5728035 54.9006089,35.2638289 57.8362679,35.2638289 C60.7732434,35.2638289 62.4938292,33.0774917 62.4938292,30.9956343 C62.4938292,27.7709481 59.8609511,26.630699 56.8212934,24.4959567 C52.7205858,21.5718113 51.0487082,20.7785385 51.0487082,17.5009674 C51.0487082,13.3359627 54.9993418,11 59.1513905,11 C60.7732434,11 62.799243,11.1019001 65.1280237,11.8448678 L65.1280237,16.8044352 L63.8102682,16.8044352 C63.6575613,15.1172794 62.1410235,12.7387508 59.2540727,12.7387508 C57.1267073,12.7387508 55.3534639,13.9808999 55.3534639,15.9131319 C55.3534639,18.2993997 57.9376337,19.5841147 61.6328781,22.1612839 C66.3931216,25.438855 67,27.2756363 67,29.5574242 C67,34.7143424 62.23844,37 57.8362679,37 C55.0493665,37 52.8746092,36.5537034 51,35.6624002 L51,30.104331" id="Fill-5" fill="#382F34"></path>
                    <path d="M85,14.2181228 L82.9615695,15.2051837 L77.4469562,15.2051837 L77.4469562,28.1715739 C77.4469562,30.0969835 77.5477152,34.0400993 80.8275472,34.0400993 C82.168416,34.0400993 83.4589052,33.9426752 84.6525109,33.4517085 L85,34.7284781 L79.2347812,37 C75.7585984,37 72.9773938,35.9629452 72.9773938,29.206065 L72.9773938,15.2051837 L69,15.2051837 L69,12.9387894 L72.9773938,12.9387894 L72.9773938,7.76377038 C73.8687228,6.82285783 74.8659777,5.93578496 76.1073793,5 L77.4469562,5 L77.4469562,12.9387894 L85,12.9387894 L85,14.2181228" id="Fill-7" fill="#382F34"></path>
                    <path d="M94.4733777,3 C96.0070715,3 97.3036606,4.32346771 97.3036606,5.84182527 C97.3036606,7.35890904 96.0070715,8.73460213 94.5220466,8.73460213 C92.984609,8.73460213 91.6892679,7.45826465 91.6892679,5.84182527 C91.6892679,4.27124232 92.984609,3 94.4733777,3 M97.1613977,12.0146111 L97.1613977,30.876892 C97.1613977,35.2854788 96.9230449,35.1364454 101,35.7262101 L101,37 L89,37 L89,35.7262101 C93.0819468,35.1364454 92.8410982,35.2854788 92.8410982,30.876892 L92.8410982,17.3059344 C92.8410982,15.0564214 91.3535774,15.2487637 89,15.2487637 L89,13.9749738 C91.640599,13.876892 94.8577371,13.2858534 97.0640599,11.9139817 L97.1613977,12.0146111" id="Fill-9" fill="#382F34"></path>
                    <path d="M120,14.2181228 L117.96157,15.2051837 L112.446956,15.2051837 L112.446956,28.1715739 C112.446956,30.0969835 112.546423,34.0400993 115.826255,34.0400993 C117.167124,34.0400993 118.458905,33.9426752 119.652511,33.4517085 L120,34.7284781 L114.236073,37 C110.758598,37 107.976102,35.9629452 107.976102,29.206065 L107.976102,15.2051837 L104,15.2051837 L104,12.9387894 L107.976102,12.9387894 L107.976102,7.76377038 C108.868723,6.82285783 109.863394,5.93578496 111.104796,5 L112.446956,5 L112.446956,12.9387894 L120,12.9387894 L120,14.2181228" id="Fill-11" fill="#382F34"></path>
                    <path d="M143.011117,37 C142.278053,36.1551322 141.886746,34.616312 141.886746,33.1806816 L137.588729,35.7101255 C135.535641,36.9019695 134.459549,37 133.04424,37 C127.424929,37 125.907981,32.8775611 125.907981,27.3233616 L125.907981,16.4600387 C125.907981,14.1821204 124.393575,14.3768914 122,14.3768914 L122,13.0870169 C124.638777,12.9876966 127.912791,12.3891948 130.208539,11 L130.306366,11.1019001 L130.306366,26.877065 C130.306366,30.5983529 130.893325,34.0719849 135.192613,34.0719849 C139.738373,34.0719849 141.886746,31.5902664 141.886746,24.2495907 L141.886746,16.4600387 C141.886746,14.1821204 140.37234,14.3768914 137.980035,14.3768914 L137.980035,13.0870169 C140.66709,12.9876966 143.939834,12.3891948 146.186034,11 L146.285131,11.1019001 L146.285131,30.0037208 C146.285131,32.5331647 146.432506,34.6666171 149.70652,33.3767426 L150,34.7646475 L143.011117,37" id="Fill-13" fill="#382F34"></path>
                    <path d="M168,14.2181228 L165.962697,15.2051837 L160.446346,15.2051837 L160.446346,28.1715739 C160.446346,30.0969835 160.548405,34.0400993 163.828502,34.0400993 C165.170771,34.0400993 166.461365,33.9426752 167.655067,33.4517085 L168,34.7284781 L162.236899,37 C158.759144,37 155.977715,35.9629452 155.977715,29.206065 L155.977715,15.2051837 L152,15.2051837 L152,12.9387894 L155.977715,12.9387894 L155.977715,7.76377038 C156.870408,6.82285783 157.862576,5.93578496 159.105369,5 L160.446346,5 L160.446346,12.9387894 L168,12.9387894 L168,14.2181228" id="Fill-15" fill="#382F34"></path>
                    <path d="M183.135092,20.9595139 C184.237543,20.9595139 185.641018,20.26772 185.641018,18.0879893 C185.641018,14.9163009 183.183307,12.7365703 180.376357,12.7365703 C177.020788,12.7365703 173.762954,14.7166211 173.762954,20.9595139 L183.135092,20.9595139 Z M173.762954,22.6960842 C173.762954,28.3438023 176.417437,34.1409583 183.585976,34.1409583 C186.342104,34.1409583 187.997083,32.9518972 189.201179,32.3605873 L190,33.8949012 L183.434812,36.9673939 L181.881477,36.9673939 C180.627862,36.9673939 176.417437,37.6089458 172.356872,33.2005308 C170.854359,31.516779 169,27.6017664 169,23.8851453 C169,18.0879893 172.157493,11 180.678684,11 C186.342104,11 190,15.0644504 190,21.306055 L190,22.6960842 L173.762954,22.6960842 L173.762954,22.6960842 Z" id="Fill-17" fill="#382F34"></path>
                    <path d="M9.33078413,80.9296538 C9.33078413,85.4480018 9.12531865,85.2042787 13.7105129,85.7397118 L13.7105129,87 L0,87 L0,85.7397118 C4.58519425,85.2042787 4.37972877,85.4480018 4.37972877,80.9296538 L4.37972877,59.0728718 C4.37972877,54.5583123 4.58519425,54.8032982 0,54.2653395 L0,53 L13.3579076,53 C21.82176,53 26,56.20881 26,62.0392215 C26,69.0339474 19.3720812,72.8198633 11.5696951,72.3841925 L11.5696951,71.4093003 C17.9431019,71.5103254 20.8991537,67.8671074 20.8991537,62.5228792 C20.8991537,57.0814144 18.1472418,54.5583123 12.4366269,54.5583123 L9.33078413,54.5583123 L9.33078413,80.9296538" id="Fill-19" fill="#382F34"></path>
                    <path d="M43.2002792,71.8207571 C39.0677098,73.4563179 34.2254086,74.6455822 34.2254086,79.7083395 C34.2254086,82.0391427 35.6839625,83.9236494 37.8461404,83.9236494 C40.2880577,83.9236494 43.2002792,82.2352037 43.2002792,75.6903805 L43.2002792,71.8207571 Z M44.2825897,87 C43.5765226,86.1074069 43.2002792,84.5685866 43.2002792,83.0800714 L39.5392356,85.6624002 C38.4557036,86.4027881 37.1400733,87 35.6839625,87 C32.5823978,87 30,84.12229 30,80.5029022 C30,75.788411 32.6288174,74.3024756 38.1246583,72.0193977 L43.2002792,69.9336707 C43.2002792,65.6216203 42.1216334,62.7413306 39.2081903,62.7413306 C36.3399453,62.7413306 35.3541388,65.4668353 34.2254086,67.2558913 C34.0885929,67.5022573 33.8992496,67.5022573 33.6158455,67.4519522 L32.0180327,67.0572506 C31.7395149,66.9566404 31.5965912,66.7592896 31.6430109,66.4123133 L32.349078,63.7822593 C32.6288174,62.839361 33.1479844,62.4420797 33.7111279,62.2421491 C35.8733058,61.3508459 37.469897,61 39.5392356,61 C45.0350765,61 47.4317957,63.5849085 47.4317957,68.9920623 L47.4317957,80.0037208 C47.4317957,82.5331647 47.5734978,84.6666171 50.7214822,83.3793223 L51,84.7646475 L44.2825897,87 L44.2825897,87 Z" id="Fill-21" fill="#382F34"></path>
                    <path d="M63.1609984,52.0940993 L63.1609984,81.0482171 C63.1609984,85.3334513 62.9226209,85.1935404 67,85.7643272 L67,87 L55,87 L55,85.7643272 C59.0823713,85.1935404 58.8439938,85.3334513 58.8439938,81.0482171 L58.8439938,56.7643979 C58.8439938,55.4730083 58.2673947,54.6682114 57.0218409,54.6682114 L55,54.6682114 L55,53.427586 C57.8817473,53.3347248 60.9531981,52.763938 63.0661466,52 L63.1609984,52.0940993" id="Fill-23" fill="#382F34"></path>
                    <path d="M85.1346404,70.9619622 C86.2343488,70.9619622 87.6402556,70.2701771 87.6402556,68.0904746 C87.6402556,64.9175387 85.1841534,62.7391244 82.3801576,62.7391244 C79.0223987,62.7391244 75.7636657,64.7165732 75.7636657,70.9619622 L85.1346404,70.9619622 Z M75.7636657,72.6985101 C75.7636657,78.343579 78.4191227,84.1406604 85.5841658,84.1406604 C88.3399516,84.1406604 89.9934231,82.9529028 91.1973692,82.3628888 L92,83.8946065 L85.4317181,86.9670596 L83.8824843,86.9670596 C82.6290253,86.9670596 78.4191227,87.6111797 74.3564559,83.2028214 C72.8554322,81.5165149 71,77.6041291 71,73.8901324 C71,68.0904746 74.1557982,61 82.6785382,61 C88.3399516,61 92,65.0669746 92,71.3084988 L92,72.6985101 L75.7636657,72.6985101 L75.7636657,72.6985101 Z" id="Fill-25" fill="#382F34"></path>
                    <path d="M194.134214,70.9619622 C195.233991,70.9619622 196.639985,70.2701771 196.639985,68.0904746 C196.639985,64.9175387 194.181124,62.7391244 191.378258,62.7391244 C188.022897,62.7391244 184.761355,64.7165732 184.761355,70.9619622 L194.134214,70.9619622 Z M184.761355,72.6985101 C184.761355,78.343579 187.419583,84.1406604 194.585071,84.1406604 C197.338421,84.1406604 198.993299,82.9529028 200.197319,82.3628888 L201,83.8946065 L194.43131,86.9670596 L192.880678,86.9670596 C191.627141,86.9670596 187.419583,87.6111797 183.355361,83.2028214 C181.852941,81.5165149 180,77.6041291 180,73.8901324 C180,68.0904746 183.155994,61 191.67796,61 C197.338421,61 201,65.0669746 201,71.3084988 L201,72.6985101 L184.761355,72.6985101 L184.761355,72.6985101 Z" id="Fill-27" fill="#382F34"></path>
                    <path d="M94,80.1069108 L95.316439,80.1069108 C95.2650979,83.577963 97.897976,85.2638289 100.833635,85.2638289 C103.771927,85.2638289 105.492513,83.0800714 105.492513,80.9956343 C105.492513,77.7709481 102.859635,76.630699 99.819977,74.5011162 C95.7205858,71.5718113 94.0487082,70.7811182 94.0487082,67.5022573 C94.0487082,63.3385424 98.0006582,61 102.148758,61 C103.771927,61 105.799243,61.1044798 108.128024,61.8500273 L108.128024,66.8095947 L106.807635,66.8095947 C106.657561,65.1224389 105.141024,62.7413306 102.254073,62.7413306 C100.126707,62.7413306 98.3521474,63.9808999 98.3521474,65.9131319 C98.3521474,68.2993997 100.93895,69.5892742 104.630245,72.1638637 C109.393122,75.4414347 110,77.2756363 110,79.5574242 C110,84.7169222 105.239756,87 100.833635,87 C98.0493665,87 95.8746092,86.5537034 94,85.6624002 L94,80.1069108" id="Fill-29" fill="#382F34"></path>
                    <path d="M129,64.2206866 L126.962861,65.2077475 L121.445664,65.2077475 L121.445664,78.1741377 C121.445664,80.0969835 121.547715,84.0452269 124.827547,84.0452269 C126.167124,84.0452269 127.456322,83.9426752 128.652511,83.4517085 L129,84.7310419 L123.234781,87 C119.758598,87 116.977394,85.9629452 116.977394,79.2111926 L116.977394,65.2077475 L113,65.2077475 L113,62.9387894 L116.977394,62.9387894 L116.977394,57.7637704 C117.868723,56.8279854 118.865978,55.9383488 120.106088,55 L121.445664,55 L121.445664,62.9387894 L129,62.9387894 L129,64.2206866" id="Fill-31" fill="#382F34"></path>
                    <path d="M136.470882,53 C138.007072,53 139.301165,54.3210191 139.301165,55.8420382 C139.301165,57.3592357 138.007072,58.7299363 136.522047,58.7299363 C134.984609,58.7299363 133.686772,57.4585987 133.686772,55.8420382 C133.686772,54.2738854 134.984609,53 136.470882,53 M139.158902,62.0152866 L139.158902,80.8764331 C139.158902,85.2853503 138.923045,85.1414013 143,85.7286624 L143,87 L131,87 L131,85.7286624 C135.079451,85.1414013 134.83985,85.2853503 134.83985,80.8764331 L134.83985,67.3070064 C134.83985,65.0547771 133.353577,65.2496815 131,65.2496815 L131,63.9757962 C133.638103,63.8751592 136.855241,63.289172 139.062812,61.9121019 L139.158902,62.0152866" id="Fill-33" fill="#382F34"></path>
                    <path d="M155.531177,80.6538032 C155.531177,85.2230121 155.279416,85.0738296 159.543699,85.6824414 L159.543699,87 L147,87 L147,85.6824414 C151.262979,85.0738296 151.013827,85.2230121 151.013827,80.6538032 L151.013827,66.591043 C151.013827,64.256931 149.460214,64.4589215 147,64.4589215 L147,63.1387225 C149.757631,63.0344267 153.120532,62.4271352 155.42682,61 L155.531177,61.1069361 L155.531177,65.4715142 C157.686147,62.9340916 161.2982,61 165.662927,61 C171.782155,61 172.988782,64.7110795 172.988782,69.9918757 L172.988782,80.6538032 C172.988782,85.2230121 172.735716,85.0738296 177,85.6824414 L177,87 L164.457605,87 L164.457605,85.6824414 C168.723193,85.0738296 168.47665,85.2230121 168.47665,80.6538032 L168.47665,71.3120747 C168.47665,68.1119123 168.275763,63.6456789 162.953561,63.6456789 C156.535612,63.6456789 155.531177,69.2261603 155.531177,74.4607495 L155.531177,80.6538032" id="Fill-35" fill="#382F34"></path>
                    <path d="M241.297864,59.7815485 C240.897493,56.3966817 238.997029,53.6943188 234.999814,53.6943188 C232.097122,53.6943188 229.499907,55.1422826 229.499907,58.719457 C229.499907,62.1043238 233.003157,64.1292107 238.0026,67.7604324 C243.301021,71.5776772 245,74.0449975 245,78.0558069 C245,83.8086978 238.902136,87 232.899164,87 C229.702693,87 226.954689,86.4180493 224.349675,85.4527401 C224.150789,85.3572147 224,85.1636501 224,84.775264 L224,77.8132227 L225.303807,77.8132227 C225.849768,83.1802413 229.499907,85.3081951 233.350232,85.3081951 C236.897679,85.3081951 239.800371,82.7013575 239.800371,79.1656611 C239.800371,76.0284062 238.051996,73.4655606 230.551532,68.6792358 C227.849025,66.9384113 224.503064,65.0530417 224.503064,59.7815485 C224.503064,55.4313725 229.499907,52 235.248097,52 C237.400743,52 240.248839,52.2425842 242.251996,52.9175465 C242.548375,53.0168426 242.601671,53.2078934 242.601671,53.4479638 L242.601671,59.7815485 L241.297864,59.7815485" id="Fill-37" fill="#382F34"></path>
                    <path d="M264,64.2206866 L261.962697,65.2077475 L256.445055,65.2077475 L256.445055,78.1741377 C256.445055,80.0969835 256.545822,84.0452269 259.825918,84.0452269 C261.168187,84.0452269 262.457489,83.9426752 263.653775,83.4517085 L264,84.7310419 L258.236899,87 C254.75656,87 251.976423,85.9629452 251.976423,79.2111926 L251.976423,65.2077475 L248,65.2077475 L248,62.9387894 L251.976423,62.9387894 L251.976423,57.7637704 C252.869116,56.8279854 253.863868,55.9383488 255.105369,55 L256.445055,55 L256.445055,62.9387894 L264,62.9387894 L264,64.2206866" id="Fill-39" fill="#382F34"></path>
                    <path d="M286.008258,87 C285.281514,86.1551322 284.886378,84.6188917 284.886378,83.1806816 L280.589436,85.7101255 C278.533714,86.9019695 277.460114,87 276.040929,87 C270.422634,87 268.905618,82.8827206 268.905618,77.3233616 L268.905618,66.4626184 C268.905618,64.1821204 267.394954,64.3794712 265,64.3794712 L265,63.0895967 C267.637626,62.9876966 270.910518,62.3943543 273.20383,61 L273.305472,61.1044798 L273.305472,76.8796448 C273.305472,80.5983529 273.893729,84.0745647 278.194482,84.0745647 C282.735366,84.0745647 284.886378,81.5928462 284.886378,74.2495907 L284.886378,66.4626184 C284.886378,64.1821204 283.370633,64.3794712 280.978219,64.3794712 L280.978219,63.0895967 C283.667937,62.9876966 286.939559,62.3943543 289.185861,61 L289.283692,61.1044798 L289.283692,80.0037208 C289.283692,82.5331647 289.431074,84.6666171 292.703966,83.3793223 L293,84.7646475 L286.008258,87" id="Fill-41" fill="#382F34"></path>
                    <path d="M314.76,66.7485991 C313.472258,64.6224287 311.433548,63.7802026 308.35871,63.7802026 C302.901935,63.7802026 300.712258,69.4723121 300.712258,73.3357349 C300.712258,78.4895409 303,85.1745501 309.049032,85.1745501 C311.68,85.1745501 314.76,82.9968675 314.76,80.5693502 L314.76,66.7485991 Z M315.850323,88 C315.110968,87.1088371 314.807742,86.0206397 314.76,84.5306463 L311.433548,86.5151578 C309.501935,87.6046431 308.856774,88 307.663226,88 C299.474839,88 296,80.9672827 296,75.322822 C296,66.5515645 302.454194,62.0416623 309.152258,62.0416623 C310.744516,62.0416623 312.970323,62.1459747 314.76,62.8903275 L314.76,55.9554836 C314.76,54.6123003 314.162581,53.7752254 312.824516,53.7752254 L310.792258,53.7752254 L310.792258,52.4848422 C313.767742,52.3882566 316.945806,51.7945773 319.126452,51 L319.228387,51.0978734 L319.228387,81.0149316 C319.228387,83.5403223 319.374194,85.6703561 322.696774,84.3851241 L323,85.7682294 L315.850323,88 L315.850323,88 Z" id="Fill-43" fill="#382F34"></path>
                    <path d="M332.473268,53 C334.009777,53 335.302892,54.3210191 335.302892,55.8420382 C335.302892,57.3592357 334.009777,58.7299363 332.524444,58.7299363 C330.985438,58.7299363 329.686083,57.4585987 329.686083,55.8420382 C329.686083,54.2738854 330.985438,53 332.473268,53 M335.160599,62.0152866 L335.160599,80.8764331 C335.160599,85.2853503 334.923445,85.1414013 339,85.7286624 L339,87 L327,87 L327,85.7286624 C331.081548,85.1414013 330.840649,85.2853503 330.840649,80.8764331 L330.840649,67.3070064 C330.840649,65.0547771 329.352819,65.2496815 327,65.2496815 L327,63.9757962 C329.638652,63.8751592 332.855211,63.289172 335.064489,61.9121019 L335.160599,62.0152866" id="Fill-45" fill="#382F34"></path>
                    <path d="M357.132887,70.9619622 C358.236367,70.9619622 359.638191,70.2701771 359.638191,68.0904746 C359.638191,64.9175387 357.183696,62.7391244 354.37614,62.7391244 C351.022706,62.7391244 347.760469,64.7165732 347.760469,70.9619622 L357.132887,70.9619622 Z M347.760469,72.6985101 C347.760469,78.343579 350.419505,84.1406604 357.582356,84.1406604 C360.336497,84.1406604 361.991066,82.9529028 363.196166,82.3628888 L364,83.8946065 L357.43123,86.9670596 L355.87828,86.9670596 C354.62628,86.9670596 350.419505,87.6111797 346.357342,83.2028214 C344.855202,81.5165149 343,77.6041291 343,73.8901324 C343,68.0904746 346.155407,61 354.677089,61 C360.336497,61 364,65.0669746 364,71.3084988 L364,72.6985101 L347.760469,72.6985101 L347.760469,72.6985101 Z" id="Fill-47" fill="#382F34"></path>
                    <g id="Group-51" transform="translate(366.000000, 60.000000)">
                        <mask id="mask-4" fill="white">
                            <use xlink:href="#path-3"></use>
                        </mask>
                        <g id="Clip-50"></g>
                        <path d="M0.377923077,19.6542674 L1.68561538,19.6542674 C1.63853846,23.1511283 4.25130769,24.8495294 7.16615385,24.8495294 C10.0849231,24.8495294 11.7966923,22.6495348 11.7966923,20.5495989 C11.7966923,17.3009358 9.18130769,16.1522086 6.16184615,14.0067914 C2.08838462,11.0557059 0.428923077,10.2591337 0.428923077,6.95589305 C0.428923077,2.76121925 4.352,0.40528877 8.47384615,0.40528877 C10.0849231,0.40528877 12.0974615,0.510545455 14.4120769,1.26163636 L14.4120769,6.25808021 L13.0991538,6.25808021 C12.954,4.55837968 11.4462308,2.15956684 8.57584615,2.15956684 C6.46653846,2.15956684 4.70115385,3.40835294 4.70115385,5.35495187 C4.70115385,7.75896257 7.27076923,9.05842781 10.9414615,11.6521604 C15.6687692,14.9541016 16.2742308,16.8019412 16.2742308,19.1006952 C16.2742308,24.2985561 11.5416923,26.5986096 7.16615385,26.5986096 C4.403,26.5986096 2.24138462,26.1489947 0.377923077,25.2510642 L0.377923077,19.6542674" id="Fill-49" fill="#382F34" mask="url(#mask-4)"></path>
                    </g>
                    <path d="M224.324451,14.3996179 L222.291247,15.4050659 L217.42935,15.4050659 L217.42935,30.7231317 C217.42935,32.3788565 217.42935,33.0826701 217.62919,34.2879019 C217.82645,35.3429694 219.612111,35.4435142 222.389233,35.6942234 L222.389233,37 L209,37 L209,35.6942234 C213.215964,35.0909545 212.968422,35.2424246 212.968422,30.7231317 L212.968422,15.4050659 L209.545368,15.4050659 L209.545368,13.0938412 L212.968422,13.0938412 L212.968422,9.02504122 C212.968422,5.81021912 214.752793,4.00302425 216.538454,2.69855338 C217.528625,1.94381448 220.058204,0.286783926 221.446765,0.0856943227 C222.091408,-0.0148504787 222.9346,-0.11539528 223.53025,0.337709215 L225.861279,2.34729947 C226.157815,2.64893387 225.908983,3.00018779 225.760715,3.14904633 L224.969093,4.35427817 C224.720261,4.60629306 224.324451,4.50444248 224.025336,4.40520346 L222.240965,3.65177033 C221.101236,3.19997161 220.108486,2.7481729 219.314286,2.7481729 C217.479632,2.7481729 217.42935,4.40520346 217.42935,6.5662638 L217.42935,13.0938412 L224.324451,13.0938412 L224.324451,14.3996179" id="Fill-55" fill="#382F34"></path>
                    <path d="M248.010127,24.0503126 C248.010127,18.5417287 245.642918,12.7364295 239.749131,12.7364295 C235.414269,12.7364295 231.988563,16.3563561 231.988563,23.9987099 C231.988563,30.3497073 234.86144,35.2622804 240.354361,35.2622804 C244.53464,35.2622804 248.010127,31.7403989 248.010127,24.0503126 M227,24.1973802 C227,17.3006847 232.089434,11 240.453923,11 C246.752507,11 253,15.2159373 253,23.8013298 C253,30.9947405 247.609261,37 239.547388,37 C233.098151,37 227,32.6821475 227,24.1973802" id="Fill-57" fill="#382F34"></path>
                    <path d="M268.606806,15.8244973 C268.111993,15.569673 267.519503,15.621166 266.776641,15.621166 C264.751121,15.621166 264.404109,19.0738371 264.404109,22.7298395 L264.404109,30.6531586 C264.404109,32.3273411 264.404109,33.0390006 264.600749,34.2576681 C264.798674,35.3244973 266.578715,35.4261629 269.24942,35.6796669 L269.24942,37 L256,37 L256,35.6796669 C260.202697,35.069673 259.955933,35.2228316 259.955933,30.6531586 L259.955933,16.5850091 C259.955933,14.2506602 258.422656,14.4513508 256.050124,14.4513508 L256.050124,13.132338 C258.719543,13.0306724 262.030292,12.4206784 264.303861,11 L264.404109,11.1003453 L264.404109,15.6726589 L266.974566,12.9290067 C268.162117,11.6601666 268.852285,11 269.694109,11 C270.137513,11 270.730003,11.0501727 271.520419,12.5223441 L272.954734,15.1128377 C273.105106,15.419155 272.857057,15.621166 272.560169,15.8244973 L271.127139,16.7883404 C270.830251,16.9916717 270.632326,16.8900061 270.384277,16.7381678" id="Fill-59" fill="#382F34"></path>
                </g>
            </g>
        </g>
    </g>
</svg>