<?xml version="1.0" encoding="UTF-8"?>
<svg width="164px" height="16px" viewBox="0 0 164 16" version="1.1" xmlns="http://www.w3.org/2000/svg" xmlns:xlink="http://www.w3.org/1999/xlink">
    <!-- Generator: Sketch 53.2 (72643) - https://sketchapp.com -->
    <title>Group</title>
    <desc>Created with Sketch.</desc>
    <g id="Symbols" stroke="none" stroke-width="1" fill="none" fill-rule="evenodd">
        <g id="Footer" transform="translate(-1129.000000, -67.000000)" fill="#FFFFFF">
            <g id="Group" transform="translate(1129.000000, 67.000000)">
                <path d="M4.96428765,16 L4.96428765,7.99906325 L7.17289612,7.99906325 L7.46558443,5.24189614 L4.96428765,5.24189614 L4.96804007,3.86190746 C4.96804007,3.14279581 5.03636528,2.75747936 6.06921729,2.75747936 L7.44994937,2.75747936 L7.44994937,0 L5.2410282,0 C2.58775865,0 1.65387656,1.33752269 1.65387656,3.58681525 L1.65387656,5.24220839 L2.22488694e-13,5.24220839 L2.22488694e-13,7.9993755 L1.65387656,7.9993755 L1.65387656,16 L4.96428765,16 Z" id="Mask"></path>
                <path d="M37.7238532,0.00243967522 C37.9836786,0.00203306268 38.2735933,0.00243967522 38.59929,0.00243967522 C41.2048631,0.00243967522 41.5136853,0.0117917636 42.5426184,0.0585522052 C43.4940917,0.102059747 44.0104896,0.261045248 44.3544838,0.394617467 C44.8098899,0.57149392 45.13457,0.782932439 45.4759212,1.12448697 C45.8174757,1.4660415 46.0289142,1.79133153 46.2061973,2.24673757 C46.3397695,2.59032516 46.4989583,3.10672308 46.5422626,4.05819642 C46.589023,5.08692614 46.5991883,5.39595166 46.5991883,8.00030496 C46.5991883,10.6046583 46.589023,10.9136838 46.5422626,11.9424135 C46.498755,12.8938868 46.3397695,13.4102848 46.2061973,13.7538723 C46.0293208,14.2092784 45.8174757,14.5335519 45.4759212,14.8749031 C45.1343667,15.2164576 44.8100932,15.4278962 44.3544838,15.6047726 C44.0108962,15.7389548 43.4940917,15.8975336 42.5426184,15.9410412 C41.5138886,15.9878016 41.2048631,15.9979669 38.59929,15.9979669 C35.9935135,15.9979669 35.6846913,15.9878016 34.6559616,15.9410412 C33.7044883,15.897127 33.1880903,15.7381415 32.8438928,15.6045693 C32.3884868,15.4276929 32.0631968,15.2162543 31.7216422,14.8746998 C31.3800877,14.5331453 31.1686492,14.2086685 30.9913661,13.7530591 C30.8577939,13.4094715 30.6986051,12.8930736 30.6553008,11.9416003 C30.6085404,10.9128706 30.5991883,10.603845 30.5991883,7.99786528 C30.5991883,5.39188554 30.6085404,5.08448646 30.6553008,4.05575674 C30.6988084,3.10428341 30.8577939,2.58788549 30.9913661,2.24389128 C31.1682426,1.78848524 31.3800877,1.46319521 31.7216422,1.12164068 C32.0631968,0.780086151 32.3884868,0.568647632 32.8438928,0.391364566 C33.187887,0.257182429 33.7044883,0.0986035401 34.6559616,0.0548926924 C35.5562018,0.0142314388 35.9050753,0.00203306268 37.7238532,8.70414851e-14 L37.7238532,0.00243967522 Z M43.8084032,1.62279063 C43.1618892,1.62279063 42.6373591,2.14671089 42.6373591,2.79342812 C42.6373591,3.43994206 43.1618892,3.96447223 43.8084032,3.96447223 C44.4549171,3.96447223 44.9794473,3.43994206 44.9794473,2.79342812 C44.9794473,2.14691419 44.4549171,1.62238402 43.8084032,1.62238402 L43.8084032,1.62279063 Z M38.59929,2.99104182 C35.8316817,2.99104182 33.5877905,5.2349331 33.5877905,8.00254133 C33.5877905,10.7701496 35.8316817,13.0130243 38.59929,13.0130243 C41.3668982,13.0130243 43.6099763,10.7701496 43.6099763,8.00254133 C43.6099763,5.2349331 41.3666949,2.99104182 38.5990867,2.99104182 L38.59929,2.99104182 Z M38.59929,4.74964104 C40.3957042,4.74964104 41.8521903,6.20592384 41.8521903,8.00254133 C41.8521903,9.79895551 40.3957042,11.2554416 38.59929,11.2554416 C36.8026725,11.2554416 35.3463897,9.79895551 35.3463897,8.00254133 C35.3463897,6.20592384 36.8026725,4.74964104 38.59929,4.74964104 Z" id="Mask"></path>
                <path d="M77.5017052,4.51733138 L77.5363878,5.08923193 L76.9583437,5.01920329 C74.8542631,4.75076017 73.0160828,3.84038787 71.4553637,2.31142925 L70.6923455,1.55278566 L70.4958105,2.11301478 C70.0796187,3.36185884 70.345519,4.68073153 71.2125852,5.56776096 C71.6750205,6.05796143 71.5709725,6.12799007 70.7732716,5.83620407 C70.4958105,5.74283256 70.2530319,5.67280392 70.2299102,5.70781824 C70.148984,5.78951832 70.4264452,6.85161934 70.6461019,7.27179117 C70.9466849,7.85536316 71.5594116,8.42726371 72.2299428,8.76573547 L72.7964261,9.03417858 L72.1258949,9.04585002 C71.4784855,9.04585002 71.4553637,9.05752146 71.524729,9.3026217 C71.7559466,10.0612653 72.6692563,10.8665946 73.686614,11.2167378 L74.4033887,11.4618381 L73.7791011,11.8353241 C72.8542305,12.3722104 71.7675075,12.6756678 70.6807846,12.6990107 C70.1605449,12.7106821 69.7327922,12.7573679 69.7327922,12.7923822 C69.7327922,12.9090966 71.1432199,13.5626972 71.9640425,13.8194689 C74.4265105,14.5781125 77.3514137,14.2513122 79.5479814,12.9557824 C81.1087005,12.0337386 82.6694196,10.2013226 83.3977552,8.42726371 C83.7908252,7.48187709 84.1838952,5.754504 84.1838952,4.92583177 C84.1838952,4.38894554 84.2185779,4.3189169 84.8659873,3.67698771 C85.2474964,3.30350164 85.6058838,2.89500124 85.6752491,2.77828684 C85.7908579,2.55652949 85.779297,2.55652949 85.189692,2.75494396 C84.207017,3.10508716 84.0682864,3.0584014 84.5538435,2.53318661 C84.9122308,2.15970053 85.3399835,1.48275703 85.3399835,1.28434255 C85.3399835,1.24932823 85.1665702,1.30768543 84.9700352,1.41272839 C84.7619394,1.52944278 84.2995041,1.70451438 83.9526776,1.80955734 L83.3283899,2.00797182 L82.7619067,1.6228143 C82.4497629,1.41272839 82.0104493,1.17929959 81.7792317,1.10927095 C81.1896267,0.945870795 80.2878779,0.969213674 79.7560773,1.15595671 C78.310967,1.6811715 77.3976573,3.03505852 77.5017052,4.51733138 Z" id="Mask"></path>
                <path d="M112.498604,4.96723774 L112.498604,15.2712145 L109.069186,15.2712145 L109.069186,4.96723774 L112.498604,4.96723774 Z M112.724474,1.77980205 C112.724474,2.76917366 111.979746,3.56083508 110.783963,3.56083508 L110.762048,3.56083508 C109.610713,3.56083508 108.866396,2.76917366 108.866396,1.77980205 C108.866396,0.769503656 109.633382,2.66453526e-15 110.806564,2.66453526e-15 C111.979746,2.66453526e-15 112.702216,0.769503656 112.724474,1.77980205 Z M124.866396,9.36322912 L124.866259,15.2712145 L121.436978,15.2712145 L121.436978,9.75858111 C121.436978,8.37392589 120.940722,7.42907498 119.699258,7.42907498 C118.751809,7.42907498 118.187476,8.06604236 117.939622,8.68126231 C117.848945,8.90174577 117.826686,9.20894541 117.826686,9.51689733 L117.826686,15.271488 L114.396858,15.271488 C114.396858,15.271488 114.442059,5.9343832 114.396858,4.96751129 L117.826686,4.96751129 L117.826686,6.42698316 C118.281851,5.72538896 119.097052,4.7252804 120.917847,4.7252804 C123.174562,4.7252804 124.866396,6.19829313 124.866396,9.36322912 Z" id="Mask"></path>
                <path d="M163.84,4.48067268 C163.84,4.48067268 164,5.80403874 164,7.12689386 L164,8.36748567 C164,9.69085174 163.84,11.0137068 163.84,11.0137068 C163.84,11.0137068 163.6835,12.1403563 163.204,12.6364909 C162.5955,13.2879549 161.9135,13.2910206 161.601,13.329342 C159.362,13.4948905 156,13.5 156,13.5 C156,13.5 151.84,13.4611676 150.56,13.3354734 C150.204,13.2675168 149.4045,13.2879549 148.7955,12.6364909 C148.316,12.1403563 148.16,11.0137068 148.16,11.0137068 C148.16,11.0137068 148,9.69085174 148,8.36748567 L148,7.12689386 C148,5.80403874 148.16,4.48067268 148.16,4.48067268 C148.16,4.48067268 148.316,3.35402319 148.7955,2.85788866 C149.4045,2.20642467 150.086,2.20335895 150.399,2.1655485 C152.638,2 155.9965,2 155.9965,2 L156.0035,2 C156.0035,2 159.362,2 161.601,2.1655485 C161.9135,2.20335895 162.5955,2.20642467 163.204,2.85788866 C163.6835,3.35402319 163.84,4.48067268 163.84,4.48067268 Z M154.348,9.87070689 L158.6705,7.58164127 L154.3475,5.27673613 L154.348,9.87070689 Z" id="Mask"></path>
            </g>
        </g>
    </g>
</svg>